<svg width="408" height="308" viewBox="0 0 408 308" fill="none" xmlns="http://www.w3.org/2000/svg">
<path d="M101.462 237.592C101.462 230.199 104.875 226.502 111.699 226.502C115.965 226.502 119.662 228.35 122.79 232.047C125.918 235.744 129.046 240.436 132.174 246.123C135.302 251.811 138.573 257.925 141.985 264.465C145.397 271.006 149.663 277.12 154.782 282.807C160.185 288.495 166.583 293.187 173.977 296.884C181.655 300.581 190.897 302.429 201.703 302.429C207.675 302.429 215.068 301.576 223.884 299.87C232.699 298.163 241.231 295.035 249.477 290.485C258.009 285.651 265.26 278.968 271.232 270.437C277.204 261.906 280.189 250.673 280.189 236.739C280.189 224.511 275.924 213.989 267.393 205.174C259.146 196.074 248.624 187.827 235.828 180.434C223.315 172.756 209.665 165.504 194.878 158.679C180.375 151.57 166.725 144.034 153.929 136.072C141.416 127.825 130.894 118.583 122.363 108.345C114.117 98.1081 109.993 85.8802 109.993 71.6616C109.993 48.9119 117.245 31.2809 131.748 18.7685C146.535 6.25617 169 0 199.144 0C214.5 0 228.007 2.27498 239.667 6.82494C251.326 11.3749 260.994 16.9201 268.672 23.4606C276.635 30.0012 282.607 36.8261 286.588 43.9354C290.569 51.0447 292.56 57.3008 292.56 62.7039C292.56 66.4007 291.564 69.3866 289.574 71.6616C287.867 73.9366 285.024 75.074 281.043 75.074C277.63 75.074 274.929 73.3678 272.938 69.9554C270.947 66.5429 268.815 62.2773 266.54 57.1586C264.549 51.7556 262.132 46.0682 259.288 40.0964C256.444 33.8402 252.463 28.1528 247.345 23.0341C242.226 17.631 235.685 13.2233 227.723 9.81083C219.761 6.39836 209.665 4.69212 197.437 4.69212C186.063 4.69212 175.825 6.11399 166.725 8.95772C157.625 11.8014 149.805 15.6404 143.265 20.4747C137.008 25.3091 132.174 31.2809 128.762 38.3902C125.349 45.2151 123.643 52.6087 123.643 60.5711C123.643 73.0834 127.909 84.0317 136.44 93.416C144.971 102.8 155.635 111.474 168.432 119.436C181.513 127.398 195.589 135.076 210.661 142.47C225.732 149.579 239.667 157.115 252.463 165.078C265.544 173.04 276.35 181.713 284.882 191.098C293.413 200.482 297.678 211.288 297.678 223.516C297.678 250.531 289.147 271.29 272.085 285.793C255.023 300.012 231.42 307.121 201.276 307.121C185.352 307.121 171.133 304.562 158.621 299.443C146.393 294.324 136.013 288.068 127.482 280.675C118.951 273.281 112.41 265.745 107.86 258.067C103.595 250.105 101.462 243.28 101.462 237.592Z" fill="#B6917A"/>
<path fill-rule="evenodd" clip-rule="evenodd" d="M109.459 43.9883C99.4617 67.9821 102.731 97.9266 120.443 117.41C128.974 126.794 139.638 135.467 152.435 143.43C165.516 151.392 179.592 159.07 194.664 166.464C209.736 173.573 223.67 181.109 236.467 189.071C264.624 206.211 286.917 228.418 264.101 264.878C264.162 263.524 264.193 262.142 264.193 260.733C264.193 248.505 259.927 237.983 251.396 229.168C243.149 220.068 232.627 211.821 219.831 204.427C207.318 196.749 193.669 189.498 178.881 182.673C164.378 175.564 150.729 168.028 137.932 160.065C125.42 151.819 114.898 142.577 106.367 132.339C88.0193 109.563 91.4638 63.9831 109.459 43.9883Z" fill="#B6917A"/>
<path fill-rule="evenodd" clip-rule="evenodd" d="M140.135 29.3066C123.456 59.9843 129.455 89.9766 169.924 112.078C196.367 128.531 225.308 140.169 251.823 156.44C278.797 172.024 309.408 189.951 310.394 226.131C320.766 187.861 301.048 160.92 268.459 141.084C241.346 124.214 211.711 112.05 184.427 95.4421C161.161 80.9656 137.453 67.9822 140.135 29.3066Z" fill="#B6917A"/>
<path fill-rule="evenodd" clip-rule="evenodd" d="M373.171 154.362C381.651 156.058 388.059 163.047 389.014 171.642L390.258 182.841L391.503 171.642C392.458 163.047 398.865 156.058 407.346 154.362V154.362V154.362C398.865 152.666 392.458 145.677 391.503 137.081L390.258 125.883L389.014 137.081C388.059 145.677 381.651 152.666 373.171 154.362V154.362V154.362Z" fill="#B6917A"/>
<path fill-rule="evenodd" clip-rule="evenodd" d="M0 154.362C8.48036 156.058 14.8881 163.047 15.8431 171.642L17.0874 182.841L18.3317 171.642C19.2867 163.047 25.6945 156.058 34.1748 154.362V154.362V154.362C25.6945 152.666 19.2867 145.677 18.3317 137.081L17.0874 125.883L15.8431 137.081C14.8881 145.677 8.48036 152.666 0 154.362V154.362V154.362Z" fill="#B6917A"/>
</svg>
