<svg width="330" height="338" viewBox="0 0 330 338" fill="none" xmlns="http://www.w3.org/2000/svg">
<path d="M16.9819 119.507L4.92505 115.001L7.04011 109.351C7.58164 107.9 8.27644 106.909 9.12451 106.368C9.97258 105.826 10.8819 105.724 11.8322 106.081C12.4759 106.327 12.9664 106.674 13.3138 107.144C13.6509 107.614 13.8553 108.145 13.9166 108.738C13.9779 109.331 13.8962 109.923 13.6816 110.506L13.1809 109.964C13.4364 109.29 13.7838 108.728 14.2333 108.278C14.6829 107.829 15.204 107.543 15.7864 107.399C16.3791 107.256 17.0228 107.318 17.7176 107.583C18.7495 107.972 19.4035 108.666 19.6896 109.678C19.9655 110.69 19.8122 111.967 19.2298 113.53L16.9921 119.528L16.9819 119.507ZM16.0623 116.606L17.411 112.989C17.7278 112.151 17.83 111.456 17.7176 110.904C17.6052 110.352 17.2476 109.964 16.6447 109.739C16.0521 109.515 15.5208 109.576 15.0712 109.913C14.6216 110.26 14.2436 110.843 13.9268 111.681L12.5066 115.471L10.7696 114.818L12.0161 111.476C12.3124 110.7 12.3942 110.046 12.2715 109.525C12.1489 109.004 11.822 108.636 11.2702 108.431C10.7082 108.217 10.2076 108.278 9.77844 108.595C9.3493 108.912 8.98146 109.463 8.69537 110.24L7.51012 113.407L16.0521 116.606H16.0623Z" fill="#B6917A"/>
<path d="M23.4598 98.8382L26.7805 92.3806L28.5686 93.3002L24.1546 101.883L12.7006 95.9977L17.0022 87.6396L18.7903 88.5592L15.5819 94.792L23.47 98.8484L23.4598 98.8382ZM18.4735 96.4779L21.3958 90.7867L23.143 91.6858L20.2208 97.3771L18.4735 96.4779Z" fill="#B6917A"/>
<path d="M31.4907 88.13L24.0318 76.1447L25.3397 74.1931L39.2663 76.5432L37.8767 78.6174L25.4623 76.2877L25.9936 75.4908L32.8599 86.0763L31.4907 88.1198V88.13ZM30.5098 84.2575L29.3143 82.6738L33.1868 76.9008L35.1077 77.4117L30.52 84.2575H30.5098Z" fill="#B6917A"/>
<path d="M46.971 67.4268C45.8164 68.7653 44.5392 69.4908 43.1394 69.5929C41.7293 69.7053 40.3193 69.1434 38.899 67.9172L33.3917 63.1762L34.955 61.3677L40.3908 66.0474C41.3922 66.9159 42.3117 67.3246 43.1394 67.2837C43.967 67.2429 44.7231 66.8342 45.3975 66.0372C46.0718 65.2402 46.3784 64.4432 46.2864 63.6258C46.2047 62.8084 45.6529 61.9603 44.6516 61.1021L39.2158 56.4224L40.7484 54.6343L46.2558 59.3753C47.676 60.6014 48.4321 61.9195 48.5343 63.3193C48.6365 64.7293 48.1154 66.0883 46.971 67.4166V67.4268Z" fill="#B6917A"/>
<path d="M58.2104 55.4217L50.8332 47.4621L47.7066 50.3639L46.3375 48.8824L54.3481 41.4644L55.7275 42.9459L52.6009 45.8477L59.978 53.8073L58.2206 55.4319L58.2104 55.4217Z" fill="#B6917A"/>
<path d="M70.8593 44.7342L67.8145 40.6472L69.1223 41.5054L59.109 37.4388L61.1525 35.9062L69.2041 39.186L68.0597 40.0443L67.2218 31.3695L69.1121 29.9595L70.1645 40.7187L69.7252 39.2065L72.77 43.2935L70.8491 44.724L70.8593 44.7342Z" fill="#B6917A"/>
<path d="M91.3357 31.3921L85.7671 19.7848L87.545 18.9368L96.6898 24.9754L95.76 25.425L96.6796 14.5534L98.4574 13.7053L104.046 25.3024L102.003 26.2833L97.9568 17.8843L98.3859 17.68L97.5378 26.7941L96.5774 27.2539L88.8733 22.2473L89.3739 22.0123L93.4099 30.4214L91.3562 31.4125L91.3357 31.3921Z" fill="#B6917A"/>
<path d="M113.58 19.6409L120.477 17.3623L121.11 19.2628L111.945 22.2872L107.909 10.0669L116.829 7.11401L117.462 9.0145L110.811 11.2113L113.59 19.6307L113.58 19.6409ZM111.679 14.4503L117.759 12.4476L118.372 14.3175L112.292 16.3303L111.679 14.4605V14.4503Z" fill="#B6917A"/>
<path d="M130.561 14.8285L137.673 13.3367L138.082 15.2985L128.63 17.2807L125.984 4.68236L135.18 2.75122L135.588 4.71301L128.732 6.1537L130.551 14.8285H130.561ZM129.243 9.46423L135.507 8.14615L135.905 10.0671L129.642 11.3851L129.233 9.46423H129.243Z" fill="#B6917A"/>
<path d="M148.371 13.9383L147.298 3.13821L143.048 3.55713L142.843 1.54425L153.715 0.461182L153.919 2.47406L149.669 2.89299L150.742 13.6931L148.361 13.9281L148.371 13.9383Z" fill="#B6917A"/>
<path d="M165.751 13.2234C164.75 13.2029 163.789 13.0497 162.87 12.7431C161.95 12.4366 161.235 12.0585 160.704 11.5988L161.562 9.75958C162.073 10.1683 162.706 10.5157 163.462 10.8018C164.219 11.0879 164.995 11.2309 165.792 11.2411C166.466 11.2514 167.008 11.19 167.427 11.047C167.846 10.904 168.152 10.7098 168.357 10.4646C168.561 10.2194 168.663 9.93328 168.663 9.61653C168.663 9.22826 168.53 8.90129 168.255 8.66628C167.979 8.43128 167.611 8.22692 167.171 8.07366C166.722 7.93061 166.231 7.78757 165.69 7.65474C165.148 7.52191 164.607 7.36864 164.065 7.19494C163.524 7.02124 163.033 6.79645 162.584 6.53079C162.144 6.25492 161.777 5.8973 161.511 5.45794C161.235 5.00836 161.102 4.44639 161.112 3.76181C161.123 3.067 161.317 2.42329 161.705 1.8511C162.093 1.27891 162.665 0.819118 163.442 0.481935C164.208 0.144752 165.189 -0.0187306 166.364 0.0017047C167.141 0.0119224 167.897 0.124317 168.663 0.338888C169.419 0.543241 170.073 0.839553 170.635 1.21761L169.848 3.067C169.276 2.7196 168.684 2.45394 168.081 2.27003C167.478 2.08611 166.885 2.00437 166.323 1.99415C165.659 1.99415 165.128 2.05546 164.709 2.20872C164.3 2.36199 163.994 2.56634 163.8 2.82178C163.605 3.07722 163.503 3.37353 163.503 3.7005C163.503 4.08877 163.626 4.41574 163.902 4.65074C164.178 4.89597 164.535 5.0901 164.975 5.23315C165.424 5.3762 165.915 5.51924 166.466 5.65207C167.018 5.7849 167.56 5.93817 168.101 6.11187C168.643 6.27535 169.133 6.50014 169.583 6.7658C170.022 7.03146 170.38 7.38908 170.656 7.82844C170.921 8.27801 171.054 8.82977 171.044 9.50413C171.034 10.1887 170.84 10.8222 170.451 11.3944C170.063 11.9666 169.491 12.4264 168.704 12.7636C167.928 13.1008 166.947 13.254 165.772 13.2438L165.751 13.2234Z" fill="#B6917A"/>
<path d="M194.718 16.0143C193.758 15.8406 192.889 15.5137 192.123 15.0334C191.357 14.5634 190.723 13.981 190.222 13.276C189.722 12.5812 189.374 11.8046 189.19 10.9464C189.007 10.0881 188.986 9.18892 189.16 8.2489C189.334 7.30887 189.66 6.47102 190.151 5.73535C190.641 4.99968 191.244 4.39683 191.959 3.92682C192.685 3.45681 193.482 3.14006 194.361 2.96636C195.239 2.80288 196.169 2.80288 197.14 2.9868C198.172 3.18093 199.091 3.52833 199.878 4.04943C200.665 4.56032 201.298 5.22447 201.758 6.03166L199.97 7.17604C199.602 6.59363 199.163 6.13384 198.642 5.77622C198.121 5.42882 197.528 5.1836 196.864 5.06098C196.2 4.93837 195.576 4.93837 194.984 5.06098C194.391 5.1836 193.86 5.39817 193.38 5.71491C192.899 6.04188 192.501 6.45059 192.184 6.95125C191.857 7.45192 191.643 8.02411 191.52 8.67804C191.397 9.33197 191.397 9.94503 191.52 10.5274C191.643 11.1098 191.867 11.6412 192.205 12.1112C192.532 12.5812 192.951 12.9797 193.461 13.2964C193.972 13.6132 194.555 13.838 195.219 13.9606C195.883 14.0832 196.517 14.073 197.13 13.9299C197.743 13.7869 198.325 13.5008 198.877 13.0819L200.134 14.8086C199.418 15.391 198.591 15.7793 197.671 15.9837C196.752 16.188 195.76 16.188 194.718 15.9939V16.0143Z" fill="#B6917A"/>
<path d="M212.302 20.4566C211.342 20.1501 210.514 19.7209 209.799 19.1488C209.084 18.5766 208.532 17.9124 208.113 17.1563C207.694 16.4002 207.449 15.593 207.357 14.7245C207.275 13.856 207.378 12.9671 207.664 12.0475C207.95 11.1279 208.379 10.3513 208.951 9.6872C209.523 9.02305 210.198 8.50195 210.964 8.12389C211.741 7.74584 212.578 7.53127 213.488 7.46996C214.397 7.40866 215.317 7.53127 216.267 7.82758C217.227 8.13411 218.055 8.56325 218.76 9.13544C219.465 9.70763 220.017 10.3616 220.436 11.1177C220.855 11.8738 221.1 12.681 221.192 13.5495C221.284 14.418 221.171 15.3069 220.885 16.2163C220.599 17.1257 220.17 17.9226 219.598 18.5868C219.026 19.2509 218.351 19.772 217.585 20.1501C216.808 20.5281 215.971 20.7427 215.071 20.804C214.172 20.8653 213.243 20.7529 212.302 20.4464V20.4566ZM212.926 18.454C213.549 18.6481 214.152 18.7298 214.745 18.6787C215.337 18.6379 215.889 18.4744 216.4 18.2087C216.911 17.9431 217.35 17.5752 217.738 17.1257C218.127 16.6761 218.413 16.1345 218.607 15.501C218.811 14.8676 218.883 14.2647 218.832 13.6721C218.78 13.0795 218.627 12.5277 218.362 12.0168C218.096 11.5059 217.738 11.0564 217.278 10.6783C216.819 10.3003 216.277 10.0142 215.664 9.82003C215.041 9.62589 214.438 9.54415 213.856 9.59524C213.273 9.64633 212.721 9.79959 212.2 10.0653C211.689 10.3309 211.24 10.6885 210.852 11.1483C210.463 11.6081 210.177 12.1394 209.983 12.7729C209.789 13.3962 209.717 13.9991 209.769 14.5917C209.82 15.1843 209.973 15.7361 210.239 16.2572C210.504 16.768 210.862 17.2176 211.322 17.5957C211.781 17.9737 212.323 18.2598 212.936 18.454H212.926Z" fill="#B6917A"/>
<path d="M225.923 25.1688L231.359 13.5002L233.147 14.3279L236.273 26.7219L235.385 26.3132L239.574 17.3319L241.719 18.3332L236.284 30.0018L234.496 29.1741L231.369 16.7801L232.258 17.1888L228.069 26.1701L225.923 25.1688Z" fill="#B6917A"/>
<path d="M245.776 35.3861L243.742 34.1294L250.517 23.176L258.507 28.1214L257.455 29.8277L251.498 26.1391L245.776 35.3861ZM249.26 29.3679L254.716 32.7398L253.654 34.4563L248.197 31.0845L249.26 29.3679Z" fill="#B6917A"/>
<path d="M257.884 43.4893L265.608 33.1899L267.519 34.6204L259.795 44.9198L257.884 43.4893Z" fill="#B6917A"/>
<path d="M266.589 50.2623L275.305 40.7803L279.443 44.5915C280.475 45.5417 281.19 46.5635 281.599 47.6772C282.008 48.7909 282.11 49.8944 281.895 50.9979C281.681 52.1014 281.129 53.1334 280.25 54.0837C279.382 55.0339 278.401 55.6572 277.318 55.9739C276.235 56.2907 275.121 56.2805 273.977 55.9739C272.832 55.6572 271.749 55.0237 270.717 54.0837L266.579 50.2725L266.589 50.2623ZM269.716 50.3951L272.015 52.5102C272.73 53.1641 273.466 53.5932 274.232 53.8078C274.998 54.0224 275.755 54.0019 276.48 53.7771C277.216 53.5524 277.88 53.113 278.472 52.4591C279.075 51.8051 279.464 51.1001 279.617 50.3542C279.77 49.6083 279.719 48.8624 279.453 48.1166C279.188 47.3707 278.687 46.6657 277.982 46.0117L275.683 43.8967L269.706 50.3951H269.716Z" fill="#B6917A"/>
<path d="M284.153 64.9043L288.874 70.4218L287.352 71.7297L281.078 64.3934L290.856 56.0251L296.966 63.1673L295.444 64.4752L290.887 59.1518L284.153 64.9145V64.9043ZM288.22 61.1851L292.379 66.0487L290.887 67.3259L286.728 62.4623L288.22 61.1851Z" fill="#B6917A"/>
<path d="M292.041 77.8716L302.75 70.7192L303.843 72.3541L300.083 84.5744L299.541 83.7672L307.787 78.2599L309.105 80.2319L298.397 87.3842L297.304 85.7494L301.064 73.5291L301.605 74.3363L293.359 79.8436L292.041 77.8716Z" fill="#B6917A"/>
<path d="M305.14 100.155C304.701 99.2765 304.435 98.3876 304.343 97.4986C304.262 96.5995 304.343 95.7412 304.589 94.9238C304.844 94.1064 305.253 93.3605 305.825 92.6861C306.397 92.0117 307.102 91.4702 307.961 91.0308C308.819 90.6017 309.677 90.3565 310.556 90.3054C311.435 90.2543 312.272 90.3667 313.09 90.6528C313.897 90.9491 314.643 91.3885 315.307 91.9913C315.971 92.5942 316.523 93.3298 316.973 94.2188C317.443 95.1588 317.718 96.0988 317.78 97.0388C317.851 97.9789 317.698 98.878 317.33 99.7363L315.338 99.0108C315.573 98.3671 315.675 97.7336 315.644 97.1104C315.614 96.4871 315.44 95.8638 315.133 95.261C314.827 94.6581 314.459 94.1574 314.009 93.759C313.56 93.3605 313.069 93.0642 312.518 92.8802C311.976 92.6963 311.404 92.6248 310.811 92.6657C310.219 92.7065 309.626 92.8802 309.033 93.1766C308.441 93.4729 307.95 93.8509 307.562 94.3005C307.174 94.7501 306.888 95.2507 306.714 95.8025C306.54 96.3542 306.479 96.9264 306.53 97.5191C306.581 98.1117 306.765 98.7145 307.061 99.3174C307.368 99.9202 307.756 100.421 308.236 100.819C308.717 101.218 309.299 101.514 309.963 101.698L309.34 103.742C308.441 103.517 307.634 103.098 306.918 102.485C306.203 101.872 305.6 101.085 305.12 100.135L305.14 100.155Z" fill="#B6917A"/>
<path d="M313.14 112.999L315.634 119.824L313.754 120.509L310.433 111.436L322.52 107.011L325.749 115.84L323.869 116.524L321.458 109.944L313.13 112.989L313.14 112.999ZM318.26 110.925L320.456 116.933L318.607 117.607L316.41 111.599L318.26 110.925Z" fill="#B6917A"/>
<path d="M2.1968 203.874L3.60684 210.179L1.86983 210.567L0 202.188L11.1679 199.695L12.9867 207.849L11.2496 208.237L9.8907 202.158L2.1968 203.874ZM6.94801 202.648L8.18435 208.196L6.478 208.574L5.24166 203.026L6.94801 202.648Z" fill="#B6917A"/>
<path d="M3.48462 216.554L14.3664 213.019L14.908 214.685L8.74672 224.238L8.48106 223.41L16.8595 220.682L17.5135 222.685L6.63166 226.22L6.09012 224.555L12.2514 215.001L12.517 215.829L4.13855 218.557L3.48462 216.554Z" fill="#B6917A"/>
<path d="M9.96204 234.619L9.10376 232.677L19.5666 228.049L20.4249 229.99L9.96204 234.619ZM22.8159 235.406L23.6742 237.347L13.2113 241.976L12.353 240.034L22.8159 235.406ZM16.8998 238.195L14.3659 232.473L16.0211 231.737L18.5551 237.459L16.8998 238.195Z" fill="#B6917A"/>
<path d="M15.5408 246.738L28.037 245.573L29.069 247.392L21.6612 257.528L20.5679 255.597L27.3626 246.657L27.7815 247.392L16.6341 248.639L15.551 246.728L15.5408 246.738ZM19.0148 247.494L20.7518 247.167L23.7966 252.542L22.6318 253.86L19.025 247.484L19.0148 247.494Z" fill="#B6917A"/>
<path d="M24.5427 261.981L33.9021 255.39L34.9137 256.821L31.8484 267.764L31.3477 267.059L38.5511 261.981L39.767 263.707L30.4077 270.298L29.3961 268.867L32.4614 257.924L32.9621 258.629L25.7586 263.707L24.5427 261.981Z" fill="#B6917A"/>
<path d="M38.0198 279.851C37.4476 279.187 37.0287 278.482 36.763 277.726C36.4974 276.97 36.385 276.214 36.4258 275.448C36.4667 274.681 36.6608 273.956 37.0082 273.251C37.3556 272.546 37.8461 271.923 38.4898 271.371C39.1335 270.819 39.8283 270.421 40.5742 270.186C41.3201 269.951 42.0762 269.869 42.8323 269.94C43.5986 270.012 44.3241 270.237 45.0291 270.615C45.7341 270.993 46.3676 271.514 46.95 272.178C47.5631 272.893 48.0025 273.639 48.2579 274.436C48.5133 275.233 48.5849 276.04 48.452 276.858L46.5822 276.664C46.6537 276.061 46.6026 275.488 46.4391 274.957C46.2757 274.426 45.9998 273.925 45.6013 273.476C45.2028 273.026 44.7737 272.668 44.3037 272.423C43.8336 272.178 43.3432 272.035 42.8323 271.984C42.3214 271.933 41.8105 272.004 41.3099 272.168C40.8092 272.331 40.329 272.607 39.8896 272.995C39.4503 273.384 39.1029 273.803 38.8576 274.283C38.6124 274.753 38.4796 275.243 38.4489 275.764C38.4183 276.275 38.4898 276.786 38.6635 277.287C38.8372 277.787 39.1233 278.268 39.5116 278.727C39.8998 279.187 40.3494 279.535 40.8501 279.77C41.3507 280.015 41.9127 280.138 42.536 280.158L42.444 282.048C41.6266 282.048 40.8399 281.864 40.0838 281.486C39.3277 281.108 38.6431 280.567 38.03 279.851H38.0198Z" fill="#B6917A"/>
<path d="M45.1007 287.271L53.2135 279.199L54.7155 280.701L46.6027 288.773L45.1007 287.271Z" fill="#B6917A"/>
<path d="M51.4666 293.525L58.9357 284.86L60.264 286.005L59.9473 297.367L59.2933 296.805L65.0459 290.133L66.6398 291.512L59.1707 300.177L57.8424 299.032L58.1592 287.67L58.8131 288.232L53.0606 294.904L51.4666 293.525Z" fill="#B6917A"/>
<path d="M68.9287 307.613C68.193 307.102 67.6106 306.51 67.161 305.846C66.7114 305.182 66.4151 304.477 66.2619 303.72C66.1086 302.964 66.1188 302.208 66.2823 301.442C66.4458 300.676 66.7727 299.95 67.2632 299.255C67.7536 298.56 68.3258 298.009 68.99 297.59C69.6541 297.171 70.3694 296.915 71.1255 296.803C71.8816 296.691 72.6581 296.732 73.4449 296.936C74.2316 297.14 74.9775 297.488 75.7132 297.999C76.5102 298.56 77.1335 299.184 77.583 299.899C78.0326 300.614 78.3085 301.36 78.4004 302.167L76.551 302.464C76.4386 301.84 76.2343 301.299 75.938 300.819C75.6417 300.349 75.233 299.93 74.7221 299.572C74.2316 299.225 73.7207 298.99 73.1894 298.857C72.6581 298.724 72.137 298.693 71.6261 298.775C71.1152 298.857 70.635 299.041 70.1957 299.327C69.7461 299.613 69.3578 300.001 69.0206 300.481C68.6937 300.951 68.4689 301.452 68.3463 301.963C68.2339 302.484 68.2134 302.995 68.3156 303.506C68.4076 304.017 68.6017 304.497 68.898 304.946C69.1943 305.396 69.5928 305.795 70.0935 306.142C70.5533 306.469 71.0539 306.704 71.5955 306.867C72.137 307.031 72.7194 307.062 73.3529 306.99L73.4347 308.982C72.6683 309.034 71.8918 308.931 71.105 308.676C70.3183 308.42 69.5928 308.063 68.9389 307.603L68.9287 307.613ZM71.9429 307.613L74.4053 304.109L76.0504 305.263L73.4347 308.993L71.9429 307.613Z" fill="#B6917A"/>
<path d="M89.9156 320.09C89.139 319.691 88.4851 319.201 87.9436 318.608C87.4122 318.016 87.0138 317.352 86.7583 316.636C86.5029 315.911 86.4109 315.165 86.462 314.388C86.5131 313.612 86.7379 312.846 87.1159 312.079C87.494 311.313 87.9946 310.69 88.5873 310.189C89.1799 309.688 89.8543 309.32 90.5899 309.106C91.3256 308.881 92.0919 308.81 92.8787 308.891C93.6654 308.973 94.4624 309.208 95.2492 309.607C96.087 310.036 96.7716 310.557 97.3234 311.201C97.8649 311.834 98.2327 312.559 98.4269 313.367L96.6183 313.898C96.4549 313.316 96.1892 312.805 95.8316 312.376C95.474 311.946 95.0346 311.589 94.4931 311.323C93.9618 311.047 93.4304 310.894 92.8991 310.843C92.3678 310.792 91.8569 310.843 91.3665 311.006C90.876 311.16 90.4367 311.415 90.028 311.763C89.6295 312.11 89.2923 312.549 89.0266 313.07C88.761 313.591 88.6077 314.123 88.5668 314.654C88.526 315.185 88.5873 315.686 88.7508 316.177C88.9142 316.657 89.1697 317.106 89.5273 317.505C89.8849 317.903 90.3243 318.241 90.8556 318.506C91.3869 318.782 91.9387 318.925 92.4904 318.966C93.0422 319.007 93.6144 318.905 94.1968 318.68L94.8303 320.468C94.0742 320.785 93.2772 320.907 92.4393 320.846C91.6015 320.785 90.7636 320.55 89.9156 320.121V320.09Z" fill="#B6917A"/>
<path d="M99.387 324.319L103.648 313.703L105.62 314.49L102.023 323.44L107.571 325.668L106.897 327.333L99.3666 324.309L99.387 324.319Z" fill="#B6917A"/>
<path d="M111.986 329.05L115.531 318.168L117.554 318.822L114.009 329.704L111.986 329.05Z" fill="#B6917A"/>
<path d="M122.97 330.462L129.233 332.025L128.804 333.752L120.477 331.678L123.246 320.571L131.348 322.594L130.919 324.321L124.87 322.809L122.96 330.452L122.97 330.462ZM123.991 325.659L129.509 327.039L129.08 328.735L123.562 327.356L123.991 325.659Z" fill="#B6917A"/>
<path d="M134.863 334.987L136.569 323.666L138.296 323.921L144.079 333.709L143.221 333.577L144.539 324.861L146.623 325.178L144.917 336.499L143.19 336.243L137.407 326.455L138.265 326.588L136.947 335.303L134.863 334.987Z" fill="#B6917A"/>
<path d="M154.072 337.276L154.644 327.651L150.854 327.426L150.956 325.628L160.652 326.2L160.55 327.998L156.76 327.774L156.187 337.399L154.062 337.276H154.072Z" fill="#B6917A"/>
<path d="M164.842 330.47L165.73 326.822L166.027 328.049C165.649 328.049 165.322 327.936 165.066 327.701C164.811 327.466 164.678 327.149 164.668 326.741C164.668 326.342 164.78 326.015 165.036 325.76C165.291 325.515 165.598 325.382 165.965 325.372C166.344 325.372 166.66 325.484 166.916 325.729C167.171 325.974 167.304 326.291 167.304 326.69C167.304 326.812 167.304 326.935 167.284 327.057C167.273 327.18 167.243 327.323 167.192 327.487C167.151 327.65 167.069 327.854 166.967 328.1L166.16 330.44L164.831 330.46L164.842 330.47Z" fill="#B6917A"/>
<path d="M176.97 337.39C176.081 337.451 175.213 337.39 174.385 337.186C173.557 336.981 172.883 336.705 172.372 336.338L172.996 334.641C173.476 334.968 174.058 335.224 174.753 335.418C175.448 335.612 176.143 335.684 176.848 335.633C177.45 335.592 177.92 335.49 178.288 335.336C178.646 335.183 178.912 334.989 179.065 334.754C179.218 334.519 179.29 334.263 179.269 333.977C179.249 333.63 179.095 333.354 178.84 333.16C178.574 332.966 178.237 332.823 177.839 332.721C177.43 332.618 176.98 332.537 176.49 332.465C175.999 332.394 175.509 332.291 175.008 332.179C174.518 332.067 174.058 331.903 173.649 331.699C173.231 331.494 172.893 331.198 172.617 330.83C172.342 330.462 172.178 329.962 172.137 329.359C172.096 328.736 172.219 328.163 172.515 327.622C172.812 327.08 173.292 326.631 173.946 326.273C174.6 325.916 175.458 325.701 176.5 325.63C177.185 325.578 177.869 325.63 178.554 325.752C179.238 325.875 179.841 326.089 180.373 326.375L179.821 328.072C179.29 327.806 178.748 327.612 178.196 327.499C177.645 327.387 177.113 327.356 176.613 327.387C176.03 327.428 175.55 327.53 175.203 327.693C174.845 327.857 174.589 328.061 174.436 328.307C174.283 328.552 174.222 328.817 174.242 329.104C174.262 329.451 174.406 329.727 174.671 329.921C174.927 330.115 175.264 330.258 175.662 330.35C176.071 330.442 176.521 330.524 177.021 330.606C177.522 330.687 178.012 330.779 178.503 330.892C178.993 331.004 179.453 331.157 179.862 331.351C180.27 331.556 180.618 331.842 180.884 332.21C181.159 332.588 181.313 333.068 181.354 333.671C181.394 334.284 181.272 334.856 180.975 335.398C180.679 335.939 180.199 336.389 179.535 336.746C178.871 337.104 178.023 337.319 176.97 337.39Z" fill="#B6917A"/>
<path d="M195.403 335.007L193.022 323.808L194.728 323.44L203.577 330.562L202.729 330.746L200.9 322.122L202.964 321.683L205.344 332.881L203.638 333.249L194.79 326.128L195.638 325.944L197.467 334.567L195.403 335.007Z" fill="#B6917A"/>
<path d="M210.494 331.585L211.925 319.119L213.917 318.486L222.316 327.815L220.201 328.489L212.844 320.008L213.651 319.753L212.579 330.921L210.494 331.585ZM211.955 328.346L211.996 326.588L217.882 324.708L218.934 326.118L211.955 328.346Z" fill="#B6917A"/>
<path d="M228.783 325.22L225.085 316.31L221.58 317.761L220.885 316.105L229.856 312.376L230.551 314.031L227.046 315.482L230.745 324.392L228.783 325.209V325.22Z" fill="#B6917A"/>
<path d="M243.354 318.619C241.965 319.344 240.667 319.528 239.472 319.16C238.276 318.792 237.285 317.873 236.519 316.391L233.525 310.669L235.405 309.678L238.368 315.329C238.92 316.371 239.533 317.014 240.238 317.249C240.933 317.484 241.689 317.392 242.516 316.963C243.334 316.534 243.845 315.962 244.039 315.257C244.233 314.552 244.059 313.673 243.518 312.631L240.555 306.981L242.404 306.01L245.398 311.732C246.174 313.213 246.368 314.542 245.99 315.737C245.612 316.933 244.734 317.893 243.354 318.619Z" fill="#B6917A"/>
<path d="M253.572 312.672L247.308 303.099L251.252 300.524C252.1 299.972 252.918 299.625 253.704 299.502C254.491 299.379 255.217 299.461 255.881 299.757C256.545 300.054 257.107 300.554 257.567 301.249C258.027 301.954 258.262 302.659 258.262 303.385C258.262 304.11 258.047 304.795 257.618 305.469C257.189 306.133 256.545 306.746 255.697 307.298L252.744 309.229L253.01 307.901L255.36 311.497L253.582 312.662L253.572 312.672ZM253.122 308.105L251.773 307.778L254.645 305.898C255.431 305.387 255.912 304.825 256.085 304.233C256.259 303.64 256.157 303.037 255.758 302.434C255.36 301.821 254.849 301.484 254.246 301.413C253.643 301.341 252.938 301.566 252.151 302.077L249.28 303.957L249.505 302.567L253.132 308.105H253.122ZM259.835 308.575L255.135 306.685L257.035 305.438L261.746 307.318L259.835 308.575Z" fill="#B6917A"/>
<path d="M265.322 304.783L262.206 292.624L263.841 291.316L275.019 297.038L273.282 298.427L263.381 293.135L264.045 292.603L267.029 303.414L265.312 304.783H265.322ZM265.527 301.237L264.934 299.582L269.767 295.73L271.259 296.68L265.537 301.247L265.527 301.237Z" fill="#B6917A"/>
<path d="M278.871 293.525L270.983 285.238L272.525 283.777L279.177 290.766L283.509 286.638L284.746 287.946L278.871 293.535V293.525Z" fill="#B6917A"/>
<path d="M293.87 277.963L284.93 270.82L288.281 266.631C289.14 265.558 289.998 264.904 290.877 264.68C291.745 264.455 292.532 264.628 293.247 265.19C293.727 265.568 294.044 266.008 294.197 266.498C294.361 266.989 294.381 267.489 294.269 268.011C294.156 268.532 293.921 269.002 293.584 269.441L293.308 268.848C293.707 268.348 294.157 267.97 294.667 267.714C295.168 267.459 295.689 267.357 296.231 267.397C296.772 267.438 297.293 267.673 297.814 268.092C298.581 268.705 298.938 269.472 298.897 270.401C298.857 271.331 298.366 272.373 297.447 273.528L293.891 277.973L293.87 277.963ZM293.901 275.265L296.047 272.588C296.547 271.965 296.823 271.413 296.885 270.912C296.946 270.422 296.752 269.993 296.302 269.625C295.863 269.267 295.403 269.175 294.923 269.339C294.443 269.502 293.962 269.901 293.462 270.524L291.214 273.334L289.926 272.302L291.909 269.829C292.368 269.247 292.624 268.726 292.665 268.246C292.706 267.776 292.522 267.367 292.113 267.05C291.694 266.713 291.265 266.621 290.805 266.774C290.356 266.917 289.896 267.285 289.436 267.867L287.556 270.218L293.891 275.286L293.901 275.265Z" fill="#B6917A"/>
<path d="M303.424 262.307L306.979 256.912L308.471 257.893L303.751 265.056L294.197 258.762L298.795 251.783L300.287 252.764L296.864 257.965L303.444 262.297L303.424 262.307ZM299.234 259.743L302.361 254.992L303.822 255.952L300.695 260.703L299.234 259.743Z" fill="#B6917A"/>
<path d="M310.842 254.042L303.178 244.1L304.17 242.251L316.696 243.089L315.644 245.051L304.456 244.09L304.854 243.344L311.863 252.101L310.831 254.032L310.842 254.042ZM309.626 250.701L308.43 249.414L311.342 243.968L313.079 244.254L309.626 250.711V250.701Z" fill="#B6917A"/>
<path d="M320.845 234.025C320.242 235.476 319.364 236.436 318.209 236.916C317.054 237.397 315.706 237.315 314.163 236.671L308.206 234.188L309.023 232.227L314.909 234.679C315.992 235.128 316.881 235.231 317.565 234.965C318.25 234.699 318.771 234.147 319.129 233.289C319.486 232.431 319.517 231.675 319.21 231C318.914 230.336 318.219 229.774 317.126 229.315L311.241 226.862L312.048 224.931L318.005 227.414C319.548 228.058 320.549 228.957 321.019 230.112C321.489 231.276 321.428 232.574 320.835 234.004L320.845 234.025Z" fill="#B6917A"/>
<path d="M325.494 220.958L316.298 218.056L315.154 221.673L313.437 221.131L316.359 211.874L318.076 212.416L316.931 216.033L326.127 218.934L325.494 220.958Z" fill="#B6917A"/>
<path d="M329.203 207.542L324.789 206.541L326.168 206.367L317.054 209.402L317.555 207.184L324.891 204.752L324.605 205.999L319.036 200.614L319.496 198.571L326.424 205.233L325.259 204.466L329.673 205.468L329.203 207.542Z" fill="#B6917A"/>
<path fill-rule="evenodd" clip-rule="evenodd" d="M68.4137 257.013C68.8186 256.637 69.4513 256.661 69.8269 257.065C93.5992 282.686 127.558 298.717 165.263 298.717C202.968 298.717 236.927 282.686 260.699 257.065C261.075 256.661 261.708 256.637 262.113 257.013C262.517 257.388 262.541 258.021 262.165 258.426C238.031 284.437 203.547 300.717 165.263 300.717C126.979 300.717 92.4957 284.437 68.3608 258.426C67.9852 258.021 68.0089 257.388 68.4137 257.013Z" fill="#B6917A"/>
<path fill-rule="evenodd" clip-rule="evenodd" d="M20.233 160.73C21.8947 161.062 23.1501 162.431 23.3376 164.115L23.5809 166.309L23.8242 164.115C24.0117 162.431 25.2672 161.062 26.9288 160.73C25.2672 160.397 24.0117 159.028 23.8242 157.344L23.5809 155.15L23.3376 157.344C23.1501 159.028 21.8947 160.397 20.233 160.73Z" fill="#B6917A"/>
<path fill-rule="evenodd" clip-rule="evenodd" d="M303.692 160.73C305.354 161.062 306.609 162.431 306.796 164.115L307.04 166.309L307.283 164.115C307.471 162.431 308.726 161.062 310.388 160.73C308.726 160.397 307.471 159.028 307.283 157.344L307.04 155.15L306.796 157.344C306.609 159.028 305.354 160.397 303.692 160.73Z" fill="#B6917A"/>
<path d="M235.278 117.594C234.802 117.594 234.564 117.395 234.564 116.999C234.564 116.523 234.802 116.284 235.278 116.284H252.657C253.054 116.284 253.252 116.523 253.252 116.999C253.252 117.395 253.054 117.594 252.657 117.594H251.229C250.435 117.594 249.642 117.713 248.848 117.951C248.134 118.189 247.777 118.745 247.777 119.617C247.777 120.173 248.054 120.887 248.61 121.76V121.641L273.251 161.757L297.773 121.641C298.249 120.927 298.487 120.292 298.487 119.737C298.487 118.308 297.693 117.594 296.106 117.594H294.678C294.201 117.594 293.963 117.395 293.963 116.999C293.963 116.523 294.201 116.284 294.678 116.284H306.819C307.216 116.284 307.415 116.523 307.415 116.999C307.415 117.395 307.216 117.594 306.819 117.594H305.391C304.915 117.594 304.478 117.634 304.082 117.713C303.764 117.713 303.447 117.832 303.129 118.07C302.891 118.308 302.574 118.705 302.177 119.26C301.86 119.737 301.423 120.451 300.868 121.403L274.084 164.971V194.135C274.084 195.484 274.402 196.476 275.036 197.111C275.751 197.667 276.624 197.944 277.655 197.944H279.084C279.56 197.944 279.798 198.182 279.798 198.659C279.798 199.135 279.56 199.373 279.084 199.373H262.418C262.022 199.373 261.823 199.135 261.823 198.659C261.823 198.182 262.022 197.944 262.418 197.944H263.966C264.918 197.944 265.712 197.667 266.347 197.111C267.061 196.476 267.418 195.484 267.418 194.135V164.971L240.634 121.641C239.603 120.054 238.889 118.983 238.492 118.427C238.095 117.872 237.381 117.594 236.349 117.594H235.278Z" fill="#B6917A"/>
<path fill-rule="evenodd" clip-rule="evenodd" d="M174.372 199.374C173.896 199.374 173.658 199.176 173.658 198.779C173.658 198.303 173.896 198.065 174.372 198.065H175.8C176.832 198.065 177.586 197.827 178.062 197.35C178.617 196.874 179.173 195.843 179.729 194.256L190.732 164.541C191.316 164.757 191.9 164.976 192.486 165.196L181.752 194.256C181.435 194.97 181.276 195.644 181.276 196.279C181.276 196.993 181.514 197.47 181.99 197.708C182.466 197.946 183.062 198.065 183.776 198.065H185.204C185.601 198.065 185.799 198.303 185.799 198.779C185.799 199.176 185.601 199.374 185.204 199.374H174.372ZM193.646 162.056L208.179 122.714L233.176 194.851C233.335 195.168 233.415 195.605 233.415 196.16C233.415 197.43 232.621 198.065 231.034 198.065H229.605C229.129 198.065 228.891 198.303 228.891 198.779C228.891 199.176 229.129 199.374 229.605 199.374H245.437C245.834 199.374 246.033 199.176 246.033 198.779C246.033 198.303 245.834 198.065 245.437 198.065H244.009C242.977 198.065 242.223 197.866 241.747 197.47C241.271 197.073 240.716 195.962 240.081 194.136L213.059 116.405H203.417C202.941 116.405 202.703 116.643 202.703 117.119C202.703 117.516 202.941 117.714 203.417 117.714H204.845C206.353 117.714 207.107 118.389 207.107 119.738C207.107 120.214 206.988 120.73 206.75 121.285L191.895 161.402C192.478 161.617 193.061 161.836 193.646 162.056Z" fill="#B6917A"/>
<path fill-rule="evenodd" clip-rule="evenodd" d="M103.94 198.065C104.972 198.065 105.805 197.787 106.44 197.231C107.075 196.597 107.392 195.605 107.392 194.255V152.017C109.383 151.338 111.65 150.813 114.178 150.447V194.255C114.178 195.605 114.495 196.597 115.13 197.231C115.765 197.787 116.598 198.065 117.63 198.065H119.058C119.534 198.065 119.772 198.303 119.772 198.779C119.772 199.176 119.534 199.374 119.058 199.374H102.512C102.036 199.374 101.798 199.176 101.798 198.779C101.798 198.303 102.036 198.065 102.512 198.065H103.94ZM114.178 147.066V121.523C114.178 119.778 114.614 118.706 115.487 118.309C116.439 117.913 117.273 117.714 117.987 117.714H119.058C119.534 117.714 119.772 117.516 119.772 117.119C119.772 116.643 119.534 116.405 119.058 116.405H102.512C102.036 116.405 101.798 116.643 101.798 117.119C101.798 117.516 102.036 117.714 102.512 117.714H103.583C104.297 117.714 105.091 117.913 105.964 118.309C106.916 118.706 107.392 119.778 107.392 121.523V148.501C109.463 147.873 111.733 147.398 114.178 147.066ZM155.722 153.974V194.255C155.722 195.605 155.365 196.597 154.65 197.231C154.015 197.787 153.182 198.065 152.151 198.065H150.722C150.325 198.065 150.127 198.303 150.127 198.779C150.127 199.255 150.325 199.493 150.722 199.493H167.387C167.784 199.493 167.983 199.255 167.983 198.779C167.983 198.303 167.784 198.065 167.387 198.065H165.959C164.927 198.065 164.054 197.787 163.34 197.231C162.705 196.597 162.388 195.605 162.388 194.255V155.591C160.13 155.009 157.907 154.469 155.722 153.974ZM162.388 152.135C160.131 151.561 157.908 151.03 155.722 150.542V121.523C155.722 120.174 155.365 119.222 154.65 118.667C154.015 118.032 153.182 117.714 152.151 117.714H150.722C150.325 117.714 150.127 117.516 150.127 117.119C150.127 116.643 150.325 116.405 150.722 116.405H167.387C167.784 116.405 167.983 116.643 167.983 117.119C167.983 117.516 167.784 117.714 167.387 117.714H165.959C164.927 117.714 164.054 118.032 163.34 118.667C162.705 119.222 162.388 120.174 162.388 121.523V152.135Z" fill="#B6917A"/>
<path fill-rule="evenodd" clip-rule="evenodd" d="M131.089 149.539C157.792 151.436 195.903 163.114 233.408 182.761C233.954 183.047 234.165 183.721 233.879 184.267C233.593 184.813 232.918 185.024 232.372 184.738C195.044 165.184 157.236 153.634 130.931 151.765C117.725 150.827 107.67 152.348 101.975 156.263C99.1747 158.188 97.4444 160.678 96.8619 163.777C96.2732 166.908 96.8339 170.787 98.88 175.492C99.1257 176.058 98.8668 176.715 98.3016 176.961C97.7364 177.207 97.0789 176.948 96.8331 176.382C94.6785 171.427 93.9699 167.08 94.6684 163.364C95.3731 159.616 97.4866 156.64 100.711 154.423C107.067 150.054 117.789 148.594 131.089 149.539Z" fill="#B6917A"/>
<path d="M35.658 182.394C35.658 180.331 36.6103 179.299 38.5149 179.299C39.7052 179.299 40.7369 179.815 41.6098 180.847C42.4828 181.879 43.3557 183.188 44.2287 184.775C45.1016 186.362 46.0142 188.069 46.9665 189.894C47.9189 191.719 49.1092 193.425 50.5377 195.012C52.0455 196.6 53.8311 197.909 55.8944 198.941C58.0371 199.972 60.6162 200.488 63.6318 200.488C65.2984 200.488 67.3617 200.25 69.8218 199.774C72.2819 199.298 74.6627 198.425 76.9641 197.155C79.3448 195.806 81.3685 193.941 83.035 191.56C84.7015 189.18 85.5348 186.045 85.5348 182.156C85.5348 178.744 84.3444 175.808 81.9637 173.348C79.6623 170.808 76.726 168.507 73.1549 166.443C69.6631 164.301 65.8539 162.277 61.7272 160.372C57.68 158.388 53.8707 156.285 50.2996 154.063C46.8078 151.762 43.8716 149.183 41.4908 146.326C39.1894 143.469 38.0387 140.057 38.0387 136.089C38.0387 129.74 40.0624 124.82 44.1096 121.328C48.2363 117.836 54.5056 116.09 62.9176 116.09C67.203 116.09 70.9725 116.725 74.2262 117.995C77.4799 119.265 80.1781 120.812 82.3208 122.637C84.5428 124.463 86.2093 126.367 87.3204 128.351C88.4314 130.335 88.9869 132.081 88.9869 133.589C88.9869 134.621 88.7091 135.454 88.1536 136.089C87.6775 136.724 86.8839 137.041 85.7729 137.041C84.8206 137.041 84.0667 136.565 83.5112 135.613C82.9556 134.66 82.3605 133.47 81.7256 132.041C81.1701 130.534 80.4955 128.946 79.7019 127.28C78.9084 125.534 77.7973 123.947 76.3689 122.518C74.9404 121.011 73.1152 119.781 70.8931 118.828C68.6711 117.876 65.8539 117.4 62.4415 117.4C59.2671 117.4 56.4102 117.797 53.8707 118.59C51.3313 119.384 49.1489 120.455 47.3237 121.804C45.5778 123.153 44.2287 124.82 43.2764 126.804C42.3241 128.708 41.8479 130.772 41.8479 132.994C41.8479 136.485 43.0383 139.541 45.4191 142.16C47.7998 144.778 50.7758 147.199 54.3469 149.421C57.9974 151.643 61.9256 153.786 66.1316 155.849C70.3376 157.833 74.2262 159.936 77.7973 162.158C81.4478 164.38 84.4635 166.8 86.8442 169.419C89.225 172.038 90.4153 175.054 90.4153 178.466C90.4153 186.005 88.0346 191.798 83.2731 195.846C78.5116 199.814 71.9248 201.798 63.5128 201.798C59.0687 201.798 55.1008 201.083 51.609 199.655C48.1966 198.226 45.3 196.481 42.9193 194.417C40.5385 192.354 38.7133 190.251 37.4435 188.108C36.2531 185.886 35.658 183.982 35.658 182.394Z" fill="#B6917A"/>
<path fill-rule="evenodd" clip-rule="evenodd" d="M37.89 128.366C35.1 135.062 36.0123 143.419 40.9552 148.856C43.3359 151.475 46.3118 153.895 49.883 156.117C53.5335 158.339 57.4617 160.482 61.6677 162.545C65.8737 164.529 69.7623 166.632 73.3334 168.854C81.1913 173.637 87.4125 179.834 81.0453 190.009C81.0624 189.631 81.0709 189.246 81.0709 188.852C81.0709 185.44 79.8805 182.504 77.4997 180.044C75.1984 177.504 72.2621 175.203 68.691 173.139C65.1992 170.997 61.39 168.973 57.2633 167.068C53.216 165.084 49.4068 162.981 45.8357 160.759C42.3439 158.458 39.4077 155.879 37.0269 153.022C31.9068 146.666 32.868 133.946 37.89 128.366Z" fill="#B6917A"/>
<path fill-rule="evenodd" clip-rule="evenodd" d="M46.45 124.27C41.7957 132.831 43.4696 141.201 54.7633 147.369C62.1426 151.96 70.2191 155.208 77.6185 159.749C85.1459 164.098 93.6887 169.1 93.9637 179.197C96.8583 168.517 91.3554 160.999 82.261 155.463C74.6948 150.755 66.4246 147.361 58.8105 142.726C52.3178 138.686 45.7015 135.063 46.45 124.27Z" fill="#B6917A"/>
<path d="M243.88 235.784C244.164 234.934 244.404 234.063 244.598 233.171C244.838 232.322 245.098 231.406 245.379 230.423L244.725 230.775C243.518 231.875 242.142 233.246 240.597 234.887C239.097 236.527 237.666 238.276 236.305 240.134C234.989 242.034 233.874 243.973 232.96 245.949C232.091 247.969 231.683 249.864 231.737 251.634C231.78 253.05 232.288 253.744 233.262 253.714C233.704 253.701 234.143 253.555 234.577 253.276C235.837 252.44 236.931 251.299 237.862 249.854C238.838 248.451 239.7 246.919 240.447 245.257C241.195 243.64 241.853 241.981 242.422 240.28C242.992 238.624 243.478 237.125 243.88 235.784ZM263.788 215.247C264.011 215.284 264.19 215.345 264.325 215.43C264.504 215.469 264.683 215.53 264.862 215.613C264.778 215.748 264.717 215.927 264.679 216.15C264.64 216.328 264.578 216.463 264.492 216.554C263.753 217.02 263.036 217.462 262.34 217.882C261.643 218.258 260.947 218.699 260.254 219.208C258.346 220.55 256.46 221.892 254.595 223.233C252.73 224.53 250.865 225.849 249.001 227.19C248.654 227.422 248.354 227.742 248.1 228.148C247.891 228.553 247.726 228.957 247.605 229.359C246.817 232.572 245.96 235.721 245.035 238.806C244.154 241.889 242.961 244.915 241.457 247.884C240.912 248.919 240.3 249.89 239.618 250.797C238.938 251.748 238.236 252.677 237.51 253.585C236.613 254.676 235.523 255.24 234.239 255.279C233.664 255.297 233.107 255.181 232.568 254.931C231.622 254.428 230.96 253.762 230.58 252.932C230.202 252.146 230.042 251.243 230.099 250.222C230.217 248.27 230.799 246.259 231.843 244.189C232.888 242.12 234.156 240.11 235.647 238.16C237.138 236.21 238.721 234.368 240.396 232.634C242.072 230.944 243.601 229.503 244.982 228.309C245.63 227.758 246.094 226.991 246.374 226.008C246.766 224.313 247.113 222.619 247.416 220.926C247.763 219.232 248.13 217.45 248.516 215.577C247.259 216.501 246.068 217.379 244.942 218.211C243.815 219.042 242.688 219.852 241.56 220.639C241.126 220.918 240.669 221.197 240.19 221.478C239.754 221.713 239.296 221.948 238.816 222.184C238.465 222.283 238.201 222.336 238.024 222.341C237.36 222.361 236.799 222.134 236.342 221.661C235.885 221.188 235.755 220.571 235.954 219.812C236.036 219.588 236.156 219.186 236.316 218.605C236.518 217.979 236.743 217.352 236.99 216.725C237.235 216.053 237.483 215.469 237.734 214.974C238.029 214.478 238.309 214.226 238.575 214.218C238.752 214.213 238.998 214.316 239.315 214.528C239.544 214.787 239.639 215.005 239.601 215.183C239.606 215.361 239.503 215.629 239.293 215.99C238.825 216.625 238.469 217.322 238.227 218.082C237.983 218.798 237.717 219.537 237.43 220.299L237.704 220.557C238.01 220.414 238.316 220.294 238.623 220.196C238.929 220.054 239.211 219.869 239.47 219.639C240.901 218.621 242.31 217.604 243.696 216.587C245.127 215.569 246.535 214.53 247.921 213.469C248.138 213.33 248.333 213.191 248.506 213.053C248.678 212.87 248.874 212.776 249.095 212.769C249.272 212.764 249.451 212.825 249.632 212.952C250.401 213.46 250.71 214.16 250.56 215.05C250.29 216.387 250.021 217.724 249.751 219.061C249.482 220.398 249.212 221.736 248.943 223.073C248.865 223.429 248.787 223.786 248.71 224.143C248.675 224.454 248.62 224.854 248.547 225.344C248.807 225.159 249.002 225.02 249.132 224.927C249.305 224.789 249.457 224.674 249.587 224.581L263.267 215.595C263.353 215.504 263.439 215.435 263.527 215.388C263.612 215.296 263.7 215.249 263.788 215.247Z" fill="#B6917A"/>
<path d="M242.053 201.688C242.277 201.77 242.458 201.898 242.596 202.071C242.778 202.242 242.983 202.413 243.209 202.583C242.991 202.679 242.795 202.795 242.622 202.934C242.493 203.07 242.319 203.164 242.099 203.215C241.351 203.371 240.602 203.504 239.852 203.616C239.147 203.726 238.42 203.881 237.673 204.08C237.455 204.176 237.215 204.294 236.953 204.434C236.735 204.53 236.562 204.69 236.436 204.915C234.678 208.291 233.099 211.727 231.699 215.225C230.298 218.678 229.413 222.36 229.045 226.269C228.911 227.69 228.935 229.218 229.117 230.851C229.131 231.294 229.232 231.712 229.421 232.104C229.61 232.497 229.8 232.912 229.99 233.35L229.797 233.555C228.857 233.229 228.197 232.651 227.818 231.821C227.484 231.034 227.28 230.154 227.206 229.182C227.048 226.883 227.134 224.621 227.465 222.397C227.839 220.126 228.415 217.916 229.191 215.766C229.8 213.932 230.476 212.139 231.221 210.389C231.965 208.639 232.754 206.91 233.588 205.201C232.841 205.401 232.138 205.599 231.48 205.797C230.82 205.949 230.182 206.102 229.567 206.253C229.127 206.355 228.863 206.408 228.774 206.41C228.464 206.42 228.218 206.338 228.036 206.167C227.854 205.995 227.644 205.669 227.408 205.189C227.583 205.095 227.735 205.024 227.867 204.976C228.041 204.882 228.238 204.788 228.456 204.692C229.379 204.443 230.302 204.193 231.224 203.944C232.146 203.65 233.067 203.356 233.988 203.063C234.251 202.966 234.512 202.825 234.773 202.64C235.033 202.455 235.226 202.25 235.352 202.025C235.943 201.076 236.49 200.13 236.993 199.184C237.54 198.237 238.088 197.29 238.635 196.344C238.761 196.118 238.887 195.915 239.015 195.734C239.142 195.553 239.317 195.459 239.538 195.452C239.715 195.447 239.894 195.508 240.075 195.636C240.436 195.846 240.621 196.106 240.63 196.416C240.682 196.68 240.626 196.992 240.459 197.351C240.04 198.117 239.62 198.905 239.202 199.715C238.828 200.524 238.454 201.332 238.08 202.141C238.608 202.037 239.116 201.977 239.602 201.962C240.088 201.903 240.573 201.822 241.057 201.719C241.145 201.716 241.256 201.713 241.389 201.708C241.52 201.66 241.63 201.635 241.719 201.632C241.896 201.627 242.007 201.645 242.053 201.688Z" fill="#B6917A"/>
<path d="M229.262 216.428C229.44 216.467 229.598 216.551 229.735 216.68C229.87 216.764 230.005 216.849 230.141 216.933C230.056 217.069 229.973 217.226 229.889 217.406C229.805 217.541 229.697 217.633 229.566 217.682C228.294 218.119 227.044 218.533 225.816 218.925C224.588 219.317 223.337 219.709 222.064 220.102C221.669 220.202 221.25 220.282 220.809 220.339C220.412 220.396 220.015 220.43 219.616 220.442C217.669 220.501 216.51 219.517 216.138 217.491C216.091 217.404 216.067 217.338 216.066 217.294C216.063 217.205 216.014 217.052 215.919 216.833C215.05 217.391 214.203 217.948 213.378 218.505C212.598 219.06 211.817 219.593 211.035 220.104C210.556 220.385 209.902 220.737 209.074 221.161C208.288 221.539 207.607 221.737 207.032 221.754C206.147 221.781 205.292 221.364 204.469 220.503C203.965 219.942 203.704 219.375 203.686 218.799C203.669 218.224 203.806 217.644 204.099 217.059C204.434 216.429 204.77 215.821 205.106 215.235C205.443 214.649 205.824 214.083 206.251 213.539C206.59 213.041 207.003 212.785 207.49 212.77C208.11 212.751 208.653 213.156 209.121 213.983C208.118 214.501 207.409 215.209 206.993 216.108C206.578 217.006 206.208 217.948 205.883 218.932C205.642 219.737 205.787 220.131 206.318 220.115C206.627 220.105 206.869 220.054 207.044 219.96C207.525 219.768 207.962 219.555 208.353 219.322C208.789 219.087 209.225 218.853 209.661 218.618C210.531 218.104 211.357 217.57 212.137 217.015C212.917 216.459 213.743 215.925 214.613 215.411C215.138 215.174 215.555 215.05 215.864 215.041C216.794 215.013 217.358 215.35 217.556 216.053C217.799 216.754 217.931 217.459 217.953 218.167C217.966 218.609 218.063 218.894 218.244 219.022C218.424 219.105 218.713 219.14 219.111 219.128C220.65 218.727 222.188 218.326 223.726 217.925C225.263 217.48 226.8 217.057 228.338 216.656C228.47 216.607 228.601 216.559 228.733 216.511C228.864 216.463 228.996 216.436 229.129 216.432L229.262 216.428Z" fill="#B6917A"/>
<path d="M189.23 217.644C189.316 217.553 189.378 217.418 189.417 217.24C189.454 217.017 189.45 216.884 189.405 216.842C188.997 216.544 188.616 216.4 188.262 216.411C187.689 216.517 187.077 216.779 186.425 217.198C185.772 217.572 185.167 218.055 184.609 218.648C184.094 219.195 183.625 219.808 183.203 220.485C182.781 221.162 182.512 221.813 182.398 222.436C182.486 222.389 182.573 222.364 182.662 222.362C182.795 222.358 182.905 222.332 182.992 222.285C184.031 221.501 185.071 220.738 186.112 219.998C187.151 219.213 188.19 218.429 189.23 217.644ZM205.842 217.672C205.887 217.714 205.847 217.849 205.721 218.074C205.638 218.254 205.553 218.389 205.467 218.48C204.771 218.9 203.987 219.323 203.114 219.748C202.285 220.172 201.411 220.575 200.493 220.957C199.617 221.293 198.718 221.586 197.795 221.836C196.873 222.085 195.991 222.223 195.15 222.248C193.999 222.283 193.148 221.955 192.595 221.263C192.086 220.525 191.705 219.673 191.455 218.706C190.806 219.213 190.179 219.742 189.576 220.291C189.015 220.796 188.431 221.256 187.824 221.673C187.608 221.857 187.261 222.111 186.784 222.436C186.349 222.715 185.871 223.017 185.35 223.343C184.827 223.625 184.325 223.884 183.845 224.12C183.365 224.356 182.992 224.478 182.726 224.486C182.461 224.494 182.172 224.458 181.859 224.379C181.546 224.256 181.276 224.131 181.051 224.005C180.191 223.411 179.921 222.533 180.24 221.372C181.251 218.196 183.334 216.029 186.488 214.87C186.882 214.725 187.234 214.648 187.544 214.639C188.429 214.612 189.282 214.985 190.103 215.757C190.467 216.101 190.805 216.267 191.115 216.258C191.734 216.239 192.271 216.4 192.724 216.741C193.177 217.081 193.369 217.563 193.299 218.185C193.197 219.207 193.241 219.914 193.43 220.307C193.662 220.655 194.066 220.82 194.641 220.802C195.128 220.787 195.701 220.681 196.359 220.484C197.632 220.091 198.881 219.655 200.107 219.175C201.331 218.65 202.577 218.125 203.846 217.599C204.02 217.505 204.173 217.412 204.303 217.32C204.476 217.181 204.651 217.132 204.83 217.171C205.007 217.165 205.186 217.226 205.367 217.354C205.547 217.437 205.705 217.543 205.842 217.672Z" fill="#B6917A"/>
<path d="M162.514 215.266C161.938 215.284 161.322 215.413 160.665 215.654C160.008 215.896 159.353 216.226 158.702 216.644C158.093 217.017 157.552 217.454 157.08 217.956C156.608 218.458 156.27 218.977 156.065 219.515C157.386 219.253 158.567 218.775 159.609 218.079C160.651 217.382 161.619 216.445 162.514 215.266ZM182.59 217.78C182.81 217.729 183.032 217.766 183.258 217.892C183.483 218.018 183.707 218.122 183.931 218.204C183.848 218.384 183.744 218.586 183.618 218.812C183.534 218.991 183.406 219.128 183.231 219.222C181.83 219.752 180.451 220.281 179.094 220.809C177.735 221.294 176.353 221.734 174.948 222.131C174.025 222.381 172.949 222.679 171.719 223.027C170.489 223.374 169.171 223.724 167.764 224.077C166.402 224.428 165.016 224.736 163.606 225C162.24 225.219 160.915 225.348 159.631 225.387C158.348 225.426 157.193 225.328 156.167 225.093C154.963 224.82 154.105 224.27 153.593 223.444C153.123 222.572 152.936 221.515 153.031 220.271C153.061 219.783 153.204 219.402 153.462 219.129C153.719 218.855 153.954 218.582 154.168 218.31C154.551 217.811 155.023 217.287 155.582 216.739C156.184 216.145 156.81 215.616 157.461 215.154C158.111 214.691 158.786 214.316 159.486 214.029C160.229 213.697 160.932 213.52 161.596 213.5C162.349 213.477 163.025 213.877 163.626 214.701C163.951 215.178 164.053 215.618 163.932 216.02C163.811 216.423 163.601 216.806 163.302 217.169C162.272 218.263 161.17 219.161 159.995 219.861C158.819 220.517 157.457 220.868 155.908 220.915C155.554 220.926 155.267 220.979 155.049 221.074C154.829 221.125 154.681 221.351 154.604 221.752C154.498 222.641 154.758 223.165 155.383 223.323C156.053 223.524 156.744 223.658 157.455 223.725C158.209 223.747 158.962 223.746 159.714 223.723C160.865 223.688 162.013 223.587 163.16 223.419C164.305 223.207 165.428 222.974 166.527 222.719C167.626 222.42 168.658 222.145 169.625 221.894C170.635 221.598 171.557 221.348 172.393 221.146C174.105 220.651 175.795 220.112 177.46 219.53C179.169 218.902 180.878 218.319 182.59 217.78Z" fill="#B6917A"/>
<path d="M111.923 215.207C111.389 216.596 110.877 217.985 110.388 219.373C109.898 220.761 109.388 222.194 108.857 223.672C109.348 223.79 109.66 223.847 109.793 223.843C112.195 224.169 114.549 224.385 116.855 224.492C119.206 224.598 121.577 224.615 123.966 224.542C126.135 224.476 128.3 224.3 130.462 224.013C132.668 223.724 134.802 223.261 136.865 222.622C138.972 221.983 140.984 221.146 142.902 220.114C144.819 219.081 146.575 217.81 148.168 216.299C149.246 215.337 149.113 214.61 147.769 214.119C145.039 213.183 142.407 212.576 139.874 212.299C137.339 211.977 134.611 211.86 131.69 211.949C128.504 212.046 125.346 212.341 122.216 212.835C119.129 213.283 116.001 213.843 112.832 214.515C112.656 214.564 112.482 214.658 112.309 214.796C112.134 214.89 112.006 215.027 111.923 215.207ZM116.988 226.681C115.568 226.591 114.125 226.48 112.659 226.347C111.192 226.17 109.659 225.995 108.059 225.822C107.792 227.248 107.547 228.673 107.325 230.097C107.101 231.477 106.878 232.879 106.655 234.303C106.619 234.57 106.473 234.863 106.217 235.18C106.08 235.052 105.921 234.924 105.74 234.796C105.56 234.713 105.468 234.605 105.464 234.472C105.398 233.766 105.355 233.058 105.333 232.35C105.357 231.685 105.404 231.019 105.472 230.353C105.535 229.509 105.665 228.686 105.862 227.882C106.059 227.079 106.234 226.254 106.385 225.408C105.846 225.159 105.264 224.955 104.639 224.797C104.057 224.593 103.496 224.366 102.957 224.117C102.418 223.867 101.943 223.527 101.531 223.097C101.118 222.622 100.833 221.988 100.676 221.196C101.753 221.65 102.784 222.062 103.77 222.431C104.8 222.798 105.831 223.21 106.864 223.666C107.35 222.189 107.817 220.78 108.264 219.437C108.709 218.051 109.175 216.641 109.663 215.209C108.872 215.41 108.125 215.61 107.423 215.809C106.719 215.963 106.015 216.139 105.312 216.338C105.093 216.389 104.917 216.438 104.785 216.487C104.653 216.491 104.52 216.495 104.387 216.499C104.077 216.508 103.853 216.404 103.713 216.187C103.574 215.97 103.43 215.62 103.283 215.137C103.183 214.785 103.198 214.541 103.327 214.405C103.454 214.224 103.672 214.084 103.979 213.986C104.943 213.647 105.908 213.33 106.873 213.035C107.838 212.695 108.802 212.378 109.768 212.083C110.251 211.935 110.621 211.725 110.878 211.451C111.18 211.176 111.435 210.814 111.643 210.365C112.352 208.926 113.063 207.531 113.775 206.181C114.486 204.786 115.196 203.391 115.907 201.996C116.076 201.726 116.29 201.498 116.551 201.312C116.855 201.126 117.137 200.918 117.395 200.689C117.583 201.037 117.771 201.386 117.959 201.735C118.147 202.083 118.334 202.432 118.522 202.781C118.616 202.955 118.509 203.091 118.202 203.189C117.986 203.373 117.77 203.557 117.555 203.74C117.339 203.924 117.146 204.129 116.975 204.356C116.474 205.346 115.972 206.335 115.471 207.325C114.969 208.315 114.446 209.327 113.902 210.363L114.366 210.349L114.499 210.345C117.302 209.285 120.059 208.183 122.771 207.037C125.481 205.848 128.095 204.417 130.614 202.746C131.307 202.238 131.956 201.709 132.559 201.159C133.205 200.563 133.807 199.947 134.363 199.31C134.834 198.764 135.042 198.315 134.987 197.962C134.932 197.61 134.588 197.221 133.955 196.798C132.736 196.037 131.277 195.417 129.58 194.937C127.926 194.456 126.187 194.088 124.363 193.833C122.539 193.578 120.74 193.411 118.966 193.332C117.236 193.252 115.663 193.233 114.247 193.276C111.282 193.366 108.234 193.636 105.102 194.085C101.971 194.535 98.8441 195.139 95.7222 195.898C92.6444 196.656 89.6157 197.567 86.6358 198.632C83.6547 199.653 80.8546 200.801 78.2355 202.077C76.5324 202.881 74.8769 203.795 73.269 204.819C71.6611 205.842 70.0539 206.887 68.4473 207.955C67.5797 208.557 67.0211 209.128 66.7717 209.667C66.5209 210.162 66.3889 210.919 66.3755 211.938C65.7935 211.734 65.3818 211.304 65.1403 210.647C64.9418 209.944 65.0779 209.32 65.5486 208.774C66.443 207.595 67.475 206.567 68.6443 205.69C71.4122 203.48 74.6749 201.52 78.4326 199.811C82.2331 198.057 86.1965 196.564 90.323 195.331C94.4494 194.098 98.5624 193.154 102.662 192.498C106.805 191.797 110.624 191.393 114.12 191.287C115.625 191.241 117.331 191.256 119.238 191.331C121.145 191.406 123.033 191.592 124.902 191.89C126.815 192.142 128.621 192.552 130.322 193.121C132.066 193.688 133.506 194.419 134.641 195.315C135.821 196.254 136.474 197.341 136.6 198.578C136.769 199.769 136.316 200.89 135.241 201.941C134.294 202.856 133.279 203.706 132.195 204.492C131.156 205.277 130.071 206.018 128.94 206.717C127.81 207.416 126.655 208.049 125.476 208.616C124.298 209.184 123.121 209.817 121.946 210.517C123.49 210.293 125.035 210.136 126.583 210.044C128.129 209.909 129.677 209.818 131.226 209.771C132.244 209.74 133.506 209.746 135.014 209.789C136.521 209.831 138.052 209.94 139.608 210.114C141.208 210.287 142.721 210.529 144.148 210.84C145.619 211.15 146.828 211.578 147.775 212.125C149.351 212.964 150.226 214.067 150.401 215.434C150.574 216.758 150.014 218.015 148.721 219.206C147.255 220.535 145.584 221.671 143.708 222.614C141.876 223.556 139.951 224.323 137.931 224.916C135.956 225.507 133.932 225.967 131.86 226.296C129.787 226.58 127.777 226.752 125.829 226.811C122.953 226.898 120.006 226.855 116.988 226.681Z" fill="#B6917A"/>
<path fill-rule="evenodd" clip-rule="evenodd" d="M67.5236 80.0995C67.9284 80.4752 68.5611 80.4515 68.9368 80.0466C92.709 54.4261 126.668 38.3953 164.373 38.3953C202.078 38.3953 236.037 54.4261 259.809 80.0466C260.185 80.4515 260.818 80.4752 261.222 80.0995C261.627 79.7239 261.651 79.0911 261.275 78.6863C237.14 52.675 202.657 36.3953 164.373 36.3953C126.089 36.3953 91.6055 52.675 67.4707 78.6863C67.095 79.0911 67.1187 79.7239 67.5236 80.0995Z" fill="#B6917A"/>
</svg>
