<svg width="784" height="376" viewBox="0 0 784 376" fill="none" xmlns="http://www.w3.org/2000/svg">
<path fill-rule="evenodd" clip-rule="evenodd" d="M0 120.578C4.48384 121.469 7.88724 125.169 8.37344 129.734L9.0217 135.65L9.66997 129.734C10.1832 125.196 13.5596 121.496 18.0434 120.578C13.5596 119.686 10.1562 115.986 9.66997 111.421L9.0217 105.505L8.37344 111.421C7.86023 115.959 4.48384 119.659 0 120.578Z" fill="#B6917A"/>
<path fill-rule="evenodd" clip-rule="evenodd" d="M765.656 120.578C770.14 121.469 773.544 125.169 774.03 129.734L774.678 135.65L775.326 129.734C775.839 125.196 779.216 121.496 783.727 120.578C779.243 119.686 775.839 115.986 775.326 111.421L774.678 105.505L774.03 111.421C773.516 115.959 770.14 119.659 765.656 120.578Z" fill="#B6917A"/>
<path d="M580.874 4.05139C579.577 4.05139 578.956 3.51117 578.956 2.43073C578.956 1.13419 579.604 0.512939 580.874 0.512939H627.819C628.9 0.512939 629.44 1.16121 629.44 2.43073C629.44 3.51117 628.9 4.05139 627.819 4.05139H623.957C621.823 4.05139 619.662 4.37553 617.528 5.02379C615.61 5.67206 614.638 7.15767 614.638 9.53464C614.638 11.0473 615.394 12.9651 616.88 15.315V14.9909L683.435 123.359L749.666 14.9909C750.963 13.0731 751.584 11.3444 751.584 9.85878C751.584 5.99619 749.45 4.0784 745.155 4.0784H741.293C739.996 4.0784 739.375 3.53818 739.375 2.45774C739.375 1.16121 740.023 0.539951 741.293 0.539951H774.084C775.165 0.539951 775.705 1.18822 775.705 2.45774C775.705 3.53818 775.165 4.0784 774.084 4.0784H770.222C768.925 4.0784 767.764 4.18645 766.683 4.40254C765.819 4.40254 764.954 4.72667 764.117 5.37494C763.469 6.0232 762.631 7.07663 761.551 8.58926C760.687 9.88579 759.525 11.8036 758.013 14.3696L685.677 132.057V210.821C685.677 214.468 686.541 217.142 688.243 218.871C690.188 220.383 692.538 221.113 695.32 221.113H699.182C700.479 221.113 701.1 221.761 701.1 223.03C701.1 224.3 700.452 224.948 699.182 224.948H654.155C653.074 224.948 652.534 224.3 652.534 223.03C652.534 221.761 653.074 221.113 654.155 221.113H658.342C660.908 221.113 663.069 220.356 664.77 218.871C666.688 217.169 667.66 214.468 667.66 210.821V132.057L595.325 15.0179C592.543 10.7231 590.625 7.83294 589.544 6.34733C588.464 4.83471 586.546 4.10541 583.764 4.10541H580.874V4.05139Z" fill="#B6917A"/>
<path fill-rule="evenodd" clip-rule="evenodd" d="M416.349 224.948C415.052 224.948 414.431 224.408 414.431 223.328C414.431 222.031 415.079 221.41 416.349 221.41H420.211C422.993 221.41 425.046 220.762 426.316 219.492C427.828 218.196 429.314 215.414 430.827 211.119L460.539 130.869C462.106 131.463 463.699 132.03 465.266 132.652L436.283 211.146C435.419 213.064 434.986 214.9 434.986 216.602C434.986 218.52 435.635 219.816 436.904 220.465C438.201 221.113 439.794 221.437 441.739 221.437H445.602C446.682 221.437 447.222 222.085 447.222 223.355C447.222 224.435 446.682 224.975 445.602 224.975H416.349V224.948ZM468.399 124.17L507.646 17.9084L575.174 212.766C575.606 213.631 575.822 214.792 575.822 216.305C575.822 219.735 573.688 221.437 569.394 221.437H565.531C564.234 221.437 563.613 222.085 563.613 223.355C563.613 224.435 564.261 224.975 565.531 224.975H608.29C609.37 224.975 609.91 224.435 609.91 223.355C609.91 222.058 609.37 221.437 608.29 221.437H604.427C601.645 221.437 599.592 220.897 598.322 219.816C597.026 218.736 595.54 215.738 593.812 210.822L520.855 0.837402H494.816C493.519 0.837402 492.898 1.48567 492.898 2.75519C492.898 3.83563 493.546 4.37585 494.816 4.37585H498.679C502.757 4.37585 504.783 6.1856 504.783 9.8321C504.783 11.1286 504.459 12.5062 503.811 14.0188L463.699 122.387C465.266 122.982 466.859 123.549 468.426 124.143L468.399 124.17Z" fill="#B6917A"/>
<path fill-rule="evenodd" clip-rule="evenodd" d="M226.11 221.41C228.892 221.41 231.134 220.654 232.863 219.168C234.564 217.466 235.429 214.765 235.429 211.119V97.0239C240.804 95.1871 246.935 93.7826 253.769 92.7831V211.119C253.769 214.765 254.634 217.439 256.335 219.168C258.037 220.681 260.306 221.41 263.088 221.41H266.951C268.247 221.41 268.868 222.058 268.868 223.328C268.868 224.408 268.22 224.948 266.951 224.948H222.247C220.951 224.948 220.33 224.408 220.33 223.328C220.33 222.031 220.978 221.41 222.247 221.41H226.11ZM253.742 83.6804V14.6671C253.742 9.94014 254.931 7.04995 257.281 5.99652C259.847 4.91608 262.116 4.37585 264.033 4.37585H266.924C268.22 4.37585 268.841 3.83563 268.841 2.75519C268.841 1.45866 268.193 0.837402 266.924 0.837402H222.22C220.924 0.837402 220.302 1.48567 220.302 2.75519C220.302 3.83563 220.951 4.37585 222.22 4.37585H225.11C227.028 4.37585 229.189 4.91608 231.539 5.99652C234.105 7.07696 235.402 9.96715 235.402 14.6671V87.543C240.993 85.8413 247.125 84.5718 253.742 83.6804ZM365.973 102.318V211.119C365.973 214.765 365.001 217.439 363.083 219.168C361.381 220.681 359.112 221.41 356.33 221.41H352.468C351.387 221.41 350.847 222.058 350.847 223.328C350.847 224.597 351.387 225.246 352.468 225.246H397.468C398.549 225.246 399.089 224.597 399.089 223.328C399.089 222.058 398.549 221.41 397.468 221.41H393.606C390.824 221.41 388.474 220.654 386.529 219.168C384.827 217.466 383.963 214.765 383.963 211.119V106.694C377.858 105.127 371.862 103.669 365.946 102.318H365.973ZM383.99 97.348C377.885 95.8084 371.889 94.3768 365.973 93.0533V14.6671C365.973 11.0206 365.001 8.45453 363.083 6.94191C361.381 5.24021 359.112 4.37585 356.33 4.37585H352.468C351.387 4.37585 350.847 3.83563 350.847 2.75519C350.847 1.45866 351.387 0.837402 352.468 0.837402H397.468C398.549 0.837402 399.089 1.48567 399.089 2.75519C399.089 3.83563 398.549 4.37585 397.468 4.37585H393.606C390.824 4.37585 388.474 5.24021 386.529 6.94191C384.827 8.45453 383.963 11.0206 383.963 14.6671V97.348H383.99Z" fill="#B6917A"/>
<path fill-rule="evenodd" clip-rule="evenodd" d="M299.445 90.3522C371.565 95.4843 474.504 127.033 575.823 180.083C577.308 180.866 577.876 182.676 577.092 184.162C576.309 185.647 574.499 186.215 573.014 185.431C472.181 132.625 370.052 101.427 299.013 96.3757C263.331 93.8366 236.185 97.9423 220.789 108.531C213.226 113.744 208.553 120.47 206.986 128.816C205.393 137.27 206.905 147.751 212.443 160.473C213.118 162.013 212.416 163.768 210.876 164.444C209.336 165.119 207.581 164.417 206.905 162.877C201.098 149.479 199.18 137.757 201.071 127.709C202.962 117.579 208.688 109.557 217.386 103.561C234.565 91.7568 263.521 87.8132 299.445 90.3792V90.3522Z" fill="#B6917A"/>
<path d="M41.6779 179.084C41.6779 173.519 44.2439 170.71 49.4031 170.71C52.6174 170.71 55.3995 172.115 57.7495 174.897C60.0995 177.679 62.4764 181.217 64.8264 185.512C67.1764 189.807 69.6614 194.399 72.2274 199.342C74.7935 204.285 78.0078 208.877 81.8704 213.172C85.9491 217.466 90.757 221.005 96.3483 223.787C102.129 226.569 109.098 227.974 117.255 227.974C121.766 227.974 127.33 227.325 133.975 226.056C140.62 224.759 147.048 222.409 153.261 218.979C159.689 215.332 165.146 210.308 169.656 203.88C174.167 197.451 176.409 188.97 176.409 178.489C176.409 169.279 173.195 161.337 166.766 154.693C160.554 147.832 152.612 141.619 142.969 136.055C133.543 130.274 123.251 124.791 112.096 119.659C101.156 114.311 90.8651 108.612 81.2221 102.615C71.7953 96.4026 63.854 89.4337 57.4254 81.7085C51.2128 73.9834 48.1065 64.7726 48.1065 54.0492C48.1065 36.8971 53.5628 23.6077 64.5023 14.1808C75.6308 4.72694 92.5668 0 115.283 0C126.871 0 137.027 1.7017 145.833 5.13211C154.611 8.56252 161.904 12.7492 167.685 17.6653C173.681 22.6083 178.192 27.7404 181.19 33.0886C184.188 38.4368 185.701 43.1637 185.701 47.2424C185.701 50.0245 184.945 52.2665 183.459 53.9952C182.163 55.6969 180.029 56.5612 177.03 56.5612C174.464 56.5612 172.412 55.2647 170.926 52.6986C169.413 50.1326 167.82 46.9183 166.091 43.0557C164.578 38.977 162.769 34.6822 160.635 30.1984C158.501 25.4715 155.503 21.2037 151.64 17.3411C147.777 13.2624 142.861 9.94008 136.838 7.37403C130.841 4.80797 123.224 3.51144 114.014 3.51144C105.451 3.51144 97.7259 4.59189 90.8651 6.72576C84.0043 8.85964 78.1158 11.7498 73.1728 15.3963C68.4459 19.0428 64.8264 23.5537 62.2333 28.9019C59.6673 34.034 58.3707 39.6253 58.3707 45.6217C58.3707 55.0486 61.5851 63.314 68.0137 70.3909C74.4423 77.4678 82.4916 84.0045 92.1346 90.0009C101.994 95.9974 112.609 101.778 123.954 107.369C135.325 112.717 145.806 118.417 155.476 124.413C165.335 130.41 173.492 136.946 179.921 144.023C186.349 151.1 189.564 159.23 189.564 168.468C189.564 188.835 183.135 204.474 170.278 215.413C157.42 226.137 139.62 231.485 116.904 231.485C104.911 231.485 94.1874 229.567 84.7606 225.705C75.5498 221.842 67.7166 217.142 61.2879 211.551C54.8593 205.987 49.9163 200.287 46.4859 194.507C43.2715 188.51 41.6509 183.351 41.6509 179.084H41.6779Z" fill="#B6917A"/>
<path fill-rule="evenodd" clip-rule="evenodd" d="M47.7014 33.1697C40.1654 51.2671 42.6234 73.8214 55.9939 88.5154C62.4225 95.5923 70.4718 102.129 80.1148 108.125C89.9738 114.122 100.589 119.902 111.934 125.494C123.305 130.842 133.786 136.541 143.456 142.538C164.686 155.449 181.487 172.196 164.281 199.693C164.335 198.667 164.362 197.64 164.362 196.56C164.362 187.349 161.148 179.408 154.719 172.763C148.507 165.902 140.566 159.69 130.923 154.125C121.496 148.345 111.205 142.862 100.049 137.73C89.1094 132.381 78.8182 126.682 69.1753 120.686C59.7484 114.473 51.8071 107.504 45.3785 99.779C31.5488 82.6 34.1419 48.2419 47.7014 33.1697Z" fill="#B6917A"/>
<path fill-rule="evenodd" clip-rule="evenodd" d="M70.823 22.095C58.2628 45.2165 62.7737 67.8247 93.2692 84.4906C113.203 96.8887 135.028 105.667 155.017 117.93C175.356 129.68 198.423 143.186 199.18 170.467C206.986 141.619 192.13 121.307 167.577 106.37C147.129 93.6473 124.791 84.4906 104.236 71.9574C86.7055 61.045 68.8242 51.2669 70.85 22.095H70.823Z" fill="#B6917A"/>
<path d="M604.103 323.296C604.859 321 605.507 318.65 606.048 316.246C606.696 313.95 607.398 311.492 608.154 308.818L606.399 309.763C603.13 312.734 599.43 316.435 595.243 320.865C591.192 325.294 587.329 330.021 583.655 335.045C580.09 340.178 577.092 345.418 574.634 350.766C572.284 356.222 571.176 361.327 571.338 366.108C571.446 369.944 572.824 371.808 575.444 371.727C576.633 371.7 577.821 371.294 579.01 370.538C582.413 368.269 585.357 365.19 587.896 361.3C590.543 357.519 592.866 353.386 594.892 348.875C596.918 344.499 598.701 340.016 600.213 335.424C601.753 330.94 603.076 326.915 604.157 323.269L604.103 323.296ZM657.882 267.842C658.476 267.95 658.962 268.112 659.341 268.328C659.827 268.436 660.313 268.598 660.799 268.814C660.583 269.192 660.394 269.652 660.313 270.273C660.205 270.759 660.043 271.11 659.8 271.353C657.801 272.623 655.856 273.811 653.992 274.946C652.102 275.972 650.238 277.161 648.347 278.538C643.188 282.158 638.11 285.777 633.059 289.424C628.008 292.935 622.984 296.501 617.96 300.12C617.014 300.741 616.204 301.606 615.529 302.713C614.961 303.794 614.529 304.901 614.178 305.982C612.044 314.652 609.748 323.161 607.236 331.507C604.859 339.826 601.645 348.011 597.566 356.033C596.108 358.842 594.433 361.462 592.596 363.893C590.759 366.459 588.869 368.971 586.897 371.429C584.466 374.374 581.522 375.886 578.064 375.994C576.524 376.048 575.012 375.724 573.553 375.049C570.987 373.698 569.205 371.889 568.178 369.647C567.152 367.513 566.719 365.082 566.882 362.327C567.206 357.06 568.772 351.63 571.581 346.039C574.391 340.448 577.821 335.018 581.846 329.751C585.87 324.484 590.138 319.514 594.676 314.814C599.214 310.249 603.347 306.36 607.074 303.118C608.83 301.633 610.072 299.553 610.829 296.906C611.882 292.341 612.827 287.749 613.638 283.184C614.583 278.619 615.556 273.784 616.609 268.733C613.206 271.218 609.991 273.595 606.966 275.837C603.914 278.079 600.889 280.267 597.836 282.401C596.675 283.157 595.432 283.913 594.136 284.67C592.947 285.318 591.732 285.939 590.435 286.588C589.49 286.858 588.788 286.993 588.301 287.02C586.519 287.074 584.979 286.453 583.763 285.183C582.548 283.914 582.17 282.239 582.71 280.186C582.926 279.592 583.25 278.484 583.682 276.918C584.223 275.216 584.844 273.541 585.492 271.84C586.14 270.03 586.816 268.436 587.491 267.113C588.301 265.762 589.058 265.087 589.76 265.06C590.246 265.06 590.894 265.33 591.759 265.897C592.38 266.599 592.623 267.194 592.542 267.68C592.542 268.166 592.272 268.895 591.705 269.868C590.435 271.569 589.49 273.46 588.815 275.513C588.166 277.458 587.437 279.457 586.654 281.51L587.383 282.212C588.22 281.834 589.031 281.51 589.868 281.239C590.705 280.861 591.462 280.348 592.164 279.727C596.027 276.972 599.835 274.217 603.59 271.488C607.452 268.733 611.261 265.924 615.015 263.061C615.61 262.683 616.123 262.305 616.582 261.926C617.041 261.44 617.581 261.17 618.176 261.17C618.662 261.17 619.148 261.332 619.634 261.656C621.714 263.034 622.551 264.925 622.146 267.329C621.417 270.948 620.688 274.541 619.958 278.16C619.229 281.78 618.5 285.399 617.77 288.992C617.554 289.964 617.338 290.909 617.149 291.882C617.041 292.719 616.906 293.8 616.717 295.123C617.419 294.61 617.96 294.259 618.311 293.989C618.77 293.61 619.175 293.313 619.553 293.043L656.504 268.76C656.747 268.517 656.964 268.328 657.207 268.193C657.45 267.95 657.666 267.815 657.909 267.815L657.882 267.842Z" fill="#B6917A"/>
<path d="M599.16 231.215C599.754 231.431 600.24 231.782 600.618 232.242C601.105 232.701 601.672 233.16 602.266 233.619C601.672 233.889 601.159 234.186 600.672 234.564C600.321 234.943 599.862 235.186 599.268 235.321C597.242 235.753 595.216 236.104 593.19 236.401C591.273 236.698 589.328 237.104 587.302 237.644C586.708 237.914 586.059 238.211 585.357 238.589C584.763 238.859 584.304 239.291 583.953 239.886C579.199 249.015 574.931 258.28 571.149 267.734C567.368 277.053 564.964 287.02 563.991 297.554C563.64 301.39 563.694 305.523 564.18 309.925C564.207 311.114 564.478 312.248 564.991 313.302C565.504 314.355 566.017 315.49 566.53 316.678L566.017 317.245C563.478 316.354 561.695 314.814 560.669 312.573C559.778 310.439 559.21 308.062 559.021 305.442C558.589 299.229 558.832 293.125 559.724 287.128C560.723 280.997 562.29 275.027 564.397 269.22C566.044 264.277 567.881 259.415 569.88 254.688C571.879 249.961 574.012 245.288 576.281 240.669C574.256 241.209 572.365 241.749 570.582 242.29C568.799 242.695 567.071 243.127 565.423 243.532C564.234 243.802 563.532 243.937 563.289 243.964C562.452 243.964 561.776 243.775 561.29 243.316C560.804 242.857 560.237 241.966 559.589 240.669C560.048 240.426 560.48 240.237 560.831 240.102C561.29 239.859 561.83 239.589 562.425 239.345C564.91 238.67 567.422 237.995 569.907 237.32C572.392 236.536 574.877 235.726 577.362 234.943C578.064 234.673 578.766 234.294 579.469 233.808C580.171 233.295 580.684 232.755 581.035 232.133C582.629 229.567 584.115 227.028 585.465 224.462C586.951 221.896 588.436 219.357 589.895 216.791C590.246 216.17 590.57 215.63 590.921 215.144C591.273 214.657 591.732 214.414 592.326 214.387C592.812 214.387 593.298 214.549 593.785 214.873C594.757 215.441 595.27 216.143 595.297 216.98C595.432 217.683 595.297 218.547 594.838 219.519C593.704 221.599 592.569 223.706 591.435 225.894C590.435 228.082 589.409 230.27 588.409 232.458C589.841 232.188 591.219 232.025 592.515 231.971C593.839 231.809 595.135 231.593 596.459 231.323C596.702 231.323 596.999 231.323 597.35 231.296C597.701 231.161 597.998 231.107 598.241 231.08C598.728 231.08 599.025 231.107 599.133 231.242L599.16 231.215Z" fill="#B6917A"/>
<path d="M564.613 271.029C565.099 271.137 565.531 271.353 565.882 271.704C566.233 271.92 566.611 272.164 566.99 272.38C566.747 272.758 566.53 273.163 566.314 273.649C566.098 274.027 565.801 274.27 565.45 274.405C562.02 275.594 558.643 276.701 555.321 277.755C551.998 278.808 548.622 279.862 545.192 280.942C544.138 281.212 543.004 281.428 541.815 281.59C540.735 281.752 539.681 281.833 538.601 281.86C533.334 282.023 530.201 279.348 529.201 273.892C529.066 273.649 529.012 273.487 529.012 273.352C529.012 273.109 528.877 272.704 528.607 272.109C526.257 273.622 523.961 275.108 521.746 276.62C519.639 278.133 517.532 279.565 515.425 280.942C514.129 281.698 512.373 282.644 510.131 283.805C507.997 284.832 506.161 285.372 504.621 285.399C502.244 285.48 499.921 284.346 497.706 282.023C496.356 280.51 495.653 278.97 495.599 277.431C495.545 275.864 495.923 274.297 496.707 272.731C497.625 271.029 498.517 269.381 499.435 267.815C500.353 266.221 501.38 264.708 502.541 263.223C503.46 261.872 504.567 261.197 505.891 261.143C507.565 261.089 509.024 262.196 510.293 264.411C507.592 265.816 505.674 267.734 504.54 270.138C503.433 272.569 502.406 275.108 501.542 277.755C500.893 279.943 501.272 280.996 502.703 280.942C503.541 280.942 504.189 280.78 504.675 280.537C505.972 280.024 507.16 279.457 508.213 278.808C509.402 278.16 510.563 277.539 511.752 276.917C514.102 275.54 516.344 274.081 518.451 272.596C520.558 271.083 522.799 269.651 525.149 268.274C526.554 267.626 527.688 267.302 528.526 267.275C531.038 267.193 532.55 268.112 533.091 270.003C533.739 271.893 534.117 273.811 534.171 275.702C534.198 276.89 534.468 277.674 534.954 278.025C535.441 278.241 536.224 278.349 537.304 278.322C541.464 277.242 545.624 276.161 549.784 275.081C553.943 273.892 558.076 272.731 562.236 271.65C562.587 271.515 562.938 271.38 563.316 271.272C563.667 271.137 564.018 271.056 564.397 271.056H564.748L564.613 271.029Z" fill="#B6917A"/>
<path d="M456.488 274.297C456.731 274.054 456.893 273.676 457.001 273.217C457.109 272.623 457.082 272.245 456.974 272.137C455.866 271.326 454.84 270.948 453.895 270.975C452.355 271.272 450.707 271.975 448.924 273.109C447.169 274.108 445.521 275.432 444.008 277.026C442.631 278.511 441.361 280.159 440.2 281.996C439.038 283.832 438.336 285.588 438.012 287.263C438.255 287.128 438.498 287.074 438.714 287.074C439.065 287.074 439.363 286.993 439.606 286.858C442.415 284.751 445.224 282.671 448.033 280.672C450.842 278.538 453.651 276.431 456.461 274.324L456.488 274.297ZM501.353 274.379C501.353 274.379 501.353 274.865 501.029 275.459C500.813 275.945 500.57 276.323 500.354 276.566C498.463 277.701 496.356 278.835 494.006 279.997C491.764 281.131 489.414 282.239 486.929 283.265C484.552 284.184 482.148 284.967 479.636 285.642C477.151 286.317 474.774 286.696 472.478 286.75C469.372 286.831 467.076 285.966 465.59 284.075C464.213 282.077 463.186 279.781 462.511 277.161C460.755 278.538 459.054 279.97 457.433 281.428C455.92 282.779 454.327 284.021 452.706 285.156C452.112 285.642 451.193 286.344 449.897 287.209C448.735 287.965 447.439 288.775 446.034 289.667C444.63 290.423 443.252 291.125 441.956 291.774C440.659 292.422 439.66 292.746 438.93 292.773C438.228 292.773 437.445 292.692 436.58 292.476C435.743 292.152 435.014 291.801 434.393 291.477C432.07 289.883 431.34 287.506 432.205 284.373C434.933 275.783 440.551 269.949 449.087 266.815C450.14 266.437 451.112 266.221 451.95 266.194C454.327 266.113 456.65 267.14 458.865 269.219C459.837 270.138 460.755 270.597 461.593 270.57C463.267 270.516 464.726 270.948 465.941 271.866C467.157 272.785 467.697 274.081 467.481 275.756C467.211 278.511 467.319 280.429 467.832 281.482C468.454 282.428 469.561 282.86 471.101 282.833C472.424 282.806 473.964 282.509 475.747 281.969C479.177 280.915 482.553 279.727 485.876 278.43C489.171 276.999 492.547 275.594 495.978 274.162C496.437 273.919 496.869 273.649 497.22 273.406C497.68 273.028 498.166 272.893 498.652 273.001C499.138 273.001 499.624 273.163 500.11 273.487C500.597 273.703 501.029 274 501.38 274.351L501.353 274.379Z" fill="#B6917A"/>
<path d="M384.314 267.896C382.747 267.95 381.1 268.301 379.317 268.949C377.534 269.597 375.778 270.489 374.023 271.623C372.375 272.623 370.916 273.811 369.647 275.162C368.377 276.512 367.459 277.917 366.919 279.375C370.484 278.673 373.672 277.377 376.481 275.486C379.29 273.595 381.91 271.083 384.341 267.896H384.314ZM438.552 274.676C439.146 274.541 439.741 274.649 440.362 274.973C440.983 275.324 441.577 275.594 442.172 275.81C441.956 276.296 441.658 276.836 441.334 277.458C441.118 277.944 440.767 278.322 440.281 278.565C436.499 279.997 432.772 281.428 429.098 282.86C425.425 284.183 421.697 285.372 417.889 286.425C415.404 287.101 412.487 287.911 409.164 288.856C405.842 289.802 402.276 290.747 398.495 291.693C394.821 292.638 391.067 293.475 387.258 294.178C383.558 294.772 379.992 295.123 376.508 295.231C373.05 295.339 369.917 295.069 367.162 294.448C363.921 293.718 361.598 292.233 360.22 289.991C358.951 287.641 358.437 284.778 358.707 281.428C358.788 280.105 359.167 279.078 359.869 278.349C360.571 277.62 361.192 276.863 361.787 276.134C362.813 274.784 364.083 273.379 365.595 271.893C367.216 270.3 368.918 268.868 370.673 267.599C372.429 266.356 374.239 265.33 376.13 264.573C378.128 263.682 380.046 263.196 381.829 263.142C383.855 263.088 385.692 264.168 387.312 266.383C388.177 267.68 388.474 268.868 388.15 269.949C387.825 271.029 387.258 272.082 386.448 273.055C383.666 275.999 380.694 278.43 377.507 280.321C374.32 282.104 370.646 283.049 366.46 283.157C365.514 283.184 364.731 283.319 364.137 283.589C363.542 283.724 363.137 284.346 362.948 285.426C362.651 287.83 363.353 289.235 365.055 289.667C366.865 290.207 368.729 290.558 370.646 290.747C372.672 290.801 374.725 290.801 376.751 290.747C379.857 290.666 382.963 290.369 386.07 289.937C389.149 289.37 392.201 288.748 395.172 288.046C398.144 287.236 400.926 286.506 403.546 285.804C406.274 284.994 408.759 284.319 411.028 283.778C415.647 282.428 420.212 280.996 424.723 279.403C429.341 277.701 433.96 276.134 438.579 274.676H438.552Z" fill="#B6917A"/>
<path d="M247.664 267.734C246.233 271.488 244.828 275.243 243.532 278.997C242.208 282.752 240.831 286.614 239.399 290.612C240.723 290.936 241.56 291.098 241.938 291.071C248.421 291.963 254.795 292.53 261.008 292.827C267.355 293.124 273.757 293.151 280.213 292.962C286.074 292.773 291.909 292.314 297.77 291.53C303.739 290.747 309.493 289.505 315.057 287.776C320.756 286.047 326.186 283.778 331.372 280.996C336.558 278.214 341.285 274.784 345.607 270.705C348.524 268.112 348.173 266.14 344.526 264.816C337.152 262.277 330.048 260.657 323.214 259.9C316.354 259.036 309.007 258.712 301.119 258.955C292.503 259.225 283.994 260.009 275.54 261.359C267.193 262.575 258.739 264.087 250.203 265.897C249.717 266.032 249.258 266.275 248.799 266.653C248.34 266.896 247.989 267.274 247.745 267.761L247.664 267.734ZM261.359 298.715C257.523 298.472 253.634 298.175 249.663 297.824C245.693 297.338 241.56 296.879 237.238 296.392C236.509 300.255 235.861 304.091 235.266 307.953C234.672 311.681 234.051 315.462 233.457 319.325C233.348 320.054 232.97 320.837 232.268 321.702C231.89 321.351 231.458 321 230.972 320.675C230.485 320.459 230.242 320.162 230.215 319.811C230.026 317.893 229.918 316.002 229.864 314.085C229.918 312.275 230.053 310.492 230.242 308.682C230.404 306.414 230.755 304.172 231.296 302.011C231.836 299.85 232.295 297.608 232.7 295.339C231.242 294.664 229.675 294.124 227.973 293.691C226.407 293.151 224.894 292.53 223.435 291.855C221.977 291.179 220.707 290.261 219.573 289.099C218.465 287.83 217.682 286.101 217.277 283.967C220.194 285.183 222.976 286.317 225.623 287.317C228.405 288.316 231.188 289.424 233.97 290.666C235.293 286.668 236.536 282.86 237.751 279.24C238.967 275.486 240.209 271.677 241.533 267.815C239.399 268.355 237.373 268.895 235.482 269.435C233.592 269.841 231.674 270.327 229.783 270.867C229.189 271.002 228.703 271.137 228.351 271.272C228 271.272 227.622 271.272 227.271 271.299C226.434 271.299 225.839 271.029 225.461 270.462C225.083 269.868 224.705 268.922 224.3 267.626C224.03 266.68 224.084 266.005 224.408 265.654C224.759 265.168 225.326 264.789 226.164 264.519C228.757 263.601 231.377 262.737 233.97 261.953C236.563 261.035 239.183 260.171 241.776 259.387C243.072 258.982 244.072 258.415 244.774 257.686C245.585 256.956 246.287 255.957 246.827 254.741C248.745 250.852 250.663 247.097 252.58 243.451C254.498 239.696 256.416 235.915 258.334 232.16C258.793 231.431 259.36 230.81 260.062 230.323C260.873 229.81 261.656 229.27 262.331 228.649C262.845 229.594 263.358 230.539 263.844 231.485C264.357 232.43 264.87 233.376 265.357 234.321C265.6 234.78 265.33 235.158 264.492 235.428C263.898 235.915 263.331 236.428 262.737 236.914C262.142 237.4 261.629 237.967 261.17 238.589C259.819 241.263 258.469 243.937 257.118 246.611C255.768 249.285 254.363 252.013 252.878 254.822H254.12L254.471 254.768C262.034 251.905 269.489 248.934 276.809 245.828C284.129 242.613 291.179 238.751 297.986 234.24C299.85 232.862 301.606 231.431 303.226 229.945C304.982 228.324 306.603 226.677 308.088 224.948C309.358 223.462 309.925 222.247 309.763 221.302C309.601 220.356 308.682 219.303 306.981 218.168C303.685 216.115 299.742 214.441 295.15 213.144C290.693 211.848 285.993 210.848 281.05 210.173C276.107 209.498 271.272 209.039 266.464 208.822C261.791 208.606 257.55 208.552 253.715 208.66C245.693 208.904 237.481 209.633 229.027 210.848C220.572 212.064 212.118 213.684 203.69 215.737C195.371 217.79 187.187 220.248 179.137 223.111C171.088 225.866 163.525 228.973 156.448 232.403C151.856 234.564 147.372 237.049 143.023 239.804C138.675 242.559 134.326 245.396 130.004 248.286C127.654 249.906 126.141 251.446 125.466 252.905C124.791 254.228 124.44 256.281 124.386 259.036C122.819 258.496 121.712 257.334 121.036 255.552C120.496 253.661 120.874 251.959 122.144 250.501C124.548 247.313 127.357 244.531 130.517 242.181C137.999 236.212 146.805 230.918 156.961 226.299C167.225 221.572 177.922 217.52 189.077 214.198C200.233 210.875 211.334 208.309 222.409 206.554C233.592 204.663 243.91 203.555 253.364 203.285C257.415 203.15 262.034 203.204 267.193 203.393C272.352 203.582 277.458 204.096 282.482 204.906C287.641 205.581 292.53 206.689 297.122 208.228C301.822 209.768 305.711 211.74 308.79 214.144C311.978 216.683 313.733 219.627 314.085 222.949C314.544 226.164 313.328 229.189 310.411 232.025C307.845 234.483 305.117 236.779 302.173 238.913C299.364 241.02 296.446 243.046 293.394 244.909C290.342 246.8 287.209 248.502 284.048 250.041C280.861 251.581 277.701 253.283 274.513 255.174C278.673 254.579 282.86 254.147 287.047 253.904C291.233 253.526 295.393 253.283 299.58 253.175C302.335 253.094 305.738 253.121 309.817 253.229C313.896 253.337 318.028 253.634 322.215 254.12C326.537 254.579 330.615 255.228 334.478 256.092C338.449 256.929 341.717 258.091 344.283 259.576C348.551 261.845 350.901 264.816 351.387 268.517C351.846 272.082 350.334 275.486 346.849 278.7C342.878 282.293 338.368 285.345 333.317 287.911C328.374 290.45 323.16 292.53 317.704 294.124C312.383 295.717 306.9 296.96 301.308 297.851C295.717 298.607 290.288 299.094 285.021 299.229C277.241 299.472 269.3 299.337 261.143 298.877L261.359 298.715Z" fill="#B6917A"/>
</svg>
